# This file uses centimeters as units for non-parametric coordinates.

g default
v 1.768587 0.024442 -1.236843
v 0.716466 0.024442 -2.001254
v -0.584029 0.024442 -2.001254
v -1.636150 0.024442 -1.236843
v -2.038025 0.024442 0.000000
v -1.636150 0.024442 1.236843
v -0.584029 0.024442 2.001255
v 0.716466 0.024442 2.001255
v 1.768587 0.024442 1.236843
v 2.170462 0.024442 0.000000
v 1.768587 4.195972 -1.236843
v 0.716466 4.195972 -2.001254
v -0.584029 4.195972 -2.001254
v -1.636150 4.195972 -1.236843
v -2.038025 4.195972 0.000000
v -1.636150 4.195972 1.236843
v -0.584029 4.195972 2.001255
v 0.716466 4.195972 2.001255
v 1.768587 4.195972 1.236843
v 2.170462 4.195972 0.000000
v 1.690689 4.195972 -1.180247
v 0.686712 4.195972 -1.909680
v -0.554274 4.195972 -1.909679
v -1.558252 4.195972 -1.180247
v -1.941738 4.195972 0.000000
v -1.558252 4.195972 1.180247
v -0.554274 4.195972 1.909680
v 0.686712 4.195972 1.909680
v 1.690689 4.195972 1.180247
v 2.074174 4.195972 0.000000
v 1.768587 4.259086 -1.236843
v 0.716466 4.303737 -2.001254
v 0.705115 4.220253 -1.966321
v 1.738871 4.185861 -1.215254
v -0.584029 4.482785 -2.001254
v -0.572678 4.409560 -1.966321
v -1.636150 4.284772 -1.236843
v -1.606434 4.200725 -1.215253
v -2.038025 4.482785 0.000000
v -2.001294 4.409560 0.000000
v -1.636150 4.290576 1.236843
v -1.606434 4.206702 1.215253
v -0.584029 4.421228 1.984313
v -0.572678 4.348002 1.949379
v 0.666727 4.344814 2.001255
v 0.655376 4.261251 1.966321
v 1.822309 4.482785 1.177363
v 1.792593 4.409560 1.155773
v 2.170462 4.297647 0.000000
v 2.133731 4.213983 0.000000
v -3.374815 8.327698 0.232729
v -3.775041 8.005294 0.156421
v -2.188125 7.600263 0.159520
v -2.386531 7.301533 0.159520
v -1.323333 6.723174 -0.002044
v -1.521738 6.424445 -0.002044
v -0.053995 5.908218 0.284635
v -0.270797 5.581788 0.284635
v -0.053995 5.908218 -0.284634
v -0.270797 5.581788 -0.284634
v -1.323333 6.723174 -0.321084
v -1.521738 6.424445 -0.321084
v -2.188125 7.600263 -0.159520
v -2.386531 7.301533 -0.159520
v -3.374815 8.410770 -0.118253
v -3.775041 8.088367 -0.194562
v -3.611242 8.594108 -0.024902
v -3.908241 8.354858 -0.081529
v -3.908241 8.294180 0.174838
v -3.611242 8.533430 0.231465
v 0.757052 5.544280 0.396222
v 0.371697 4.964068 0.396222
v 0.371697 4.964068 -0.396222
v 0.757052 5.544280 -0.396222
v -0.225032 5.324646 0.152807
v -0.225032 5.324646 -0.152807
v 0.259665 4.850520 -0.214560
v 0.263856 4.855575 0.207074
v -0.300626 5.145693 0.102702
v -0.300626 5.145693 -0.102702
v 0.138565 4.704457 -0.115739
v 0.141382 4.707854 0.117513
v -0.451694 5.002094 0.072073
v -0.451694 5.002094 -0.072073
v 0.009377 4.538482 -0.071474
v 0.011504 4.541005 0.078961
v -1.168291 4.875360 0.000000
v -0.149601 4.258431 -0.051310
v -0.149601 4.258431 0.051310
v -1.159958 4.638685 0.000000
v -0.262414 4.116075 -0.036485
v -0.262414 4.116075 0.036485
v 0.897368 5.313915 0.208174
v 0.638449 4.924074 0.208174
v 0.638449 4.924074 -0.208173
v 0.897368 5.313915 -0.208173
v -1.094648 4.428869 0.000000
v -0.345783 3.994852 -0.030888
v -0.345783 3.994852 0.030888
v -0.967925 4.252487 0.000000
v -0.378863 3.925124 -0.018169
v -0.378863 3.925124 0.018169
v -0.891994 4.172068 0.000000
v -0.409431 3.848932 0.000000
v 0.146695 6.210387 0.302671
v 0.146695 6.210387 -0.302671
v 0.912494 5.876501 0.335290
v 0.912494 5.876501 -0.335290
vt 0.014021 0.348374
vt 0.693944 0.788603
vt 0.894412 0.049527
vt 0.991565 0.049527
vt 0.693290 0.886762
vt 0.798090 0.049527
vt 0.750456 0.966558
vt 0.698618 0.049527
vt 0.843608 0.997514
vt 0.599583 0.049527
vt 0.937165 0.967804
vt 0.499703 0.049527
vt 0.995391 0.888777
vt 0.402247 0.049527
vt 0.996046 0.790618
vt 0.307560 0.049527
vt 0.938880 0.710821
vt 0.209256 0.049527
vt 0.845727 0.679866
vt 0.109968 0.049527
vt 0.014021 0.028776
vt 0.894412 0.028776
vt 0.798090 0.028776
vt 0.698618 0.028776
vt 0.599583 0.028776
vt 0.499703 0.028776
vt 0.402247 0.028776
vt 0.307560 0.028776
vt 0.209256 0.028776
vt 0.109968 0.028776
vt 0.014021 0.039796
vt 0.894412 0.039796
vt 0.894412 0.033047
vt 0.991565 0.033047
vt 0.798090 0.039796
vt 0.798090 0.033047
vt 0.698618 0.039796
vt 0.698618 0.033047
vt 0.599583 0.039796
vt 0.599583 0.033047
vt 0.499703 0.039796
vt 0.499703 0.033047
vt 0.402247 0.039796
vt 0.402247 0.033047
vt 0.307560 0.039796
vt 0.307560 0.033047
vt 0.209256 0.039796
vt 0.209256 0.033047
vt 0.109968 0.039796
vt 0.109968 0.033047
vt 0.453912 0.490358
vt 0.471378 0.543509
vt 0.299936 0.378502
vt 0.305669 0.485370
vt 0.170174 0.381227
vt 0.173213 0.487753
vt 0.149971 0.576888
vt 0.223065 0.886933
vt 0.340437 0.682674
vt 0.343429 0.635051
vt 0.387307 0.637212
vt 0.384262 0.684825
vt 0.247907 0.610748
vt 0.197382 0.617034
vt 0.168037 0.414819
vt 0.171330 0.452960
vt 0.299033 0.413289
vt 0.303071 0.451820
vt 0.465793 0.402626
vt 0.454593 0.453004
vt 0.488097 0.454731
vt 0.495291 0.410045
vt 0.500516 0.381331
vt 0.488278 0.484009
vt 0.311027 0.612545
vt 0.263029 0.793793
vt 0.267435 0.710715
vt 0.415126 0.611208
vt 0.290714 0.613476
vt 0.290118 0.543051
vt 0.304129 0.797527
vt 0.309039 0.714883
vt 0.166603 0.635396
vt 0.142157 0.609915
vt 0.168554 0.718687
vt 0.167761 0.766354
vt 0.142403 0.646926
vt 0.131761 0.626362
vt 0.144754 0.726378
vt 0.144630 0.757057
vt 0.115740 0.649901
vt 0.116837 0.633929
vt 0.119300 0.731549
vt 0.119023 0.752101
vt 0.046259 0.608055
vt 0.080559 0.737397
vt 0.080484 0.748332
vt 0.058934 0.739857
vt 0.027959 0.627296
vt 0.059073 0.748535
vt 0.041549 0.741767
vt 0.016300 0.648713
vt 0.041780 0.748868
vt 0.032701 0.743842
vt 0.012105 0.672313
vt 0.032855 0.747871
vt 0.023474 0.746389
vt 0.016392 0.811604
vt 0.007148 0.510206
vt 0.248009 0.545145
vt 0.400447 0.799034
vt 0.266428 0.895387
vt 0.011601 0.684477
vt 0.017912 0.823871
vt 0.024018 0.847442
vt 0.037359 0.867769
vt 0.416732 0.707260
vt 0.312572 0.708677
vt 0.056801 0.884984
vt 0.118863 0.831878
vt 0.139426 0.833217
vt 0.157505 0.845793
vt 0.190007 0.707474
vt 0.187382 0.782572
vt 0.010562 0.348470
vt 0.012728 0.551533
vt 0.177580 0.875170
vt 0.405558 0.728058
vt 0.467121 0.366484
vt 0.529886 0.481524
vt 0.500678 0.524199
vt 0.009775 0.450953
vt 0.010179 0.409596
vt 0.528739 0.453201
vt 0.173219 0.526116
vt 0.302503 0.522545
vt 0.715558 0.714807
vt 0.991565 0.028776
vt 0.014021 0.033047
vt 0.991565 0.039796
vt 0.014021 0.049527
vt 0.819606 0.679215
vt 0.882862 0.589262
vt 0.881164 0.479308
vt 0.815162 0.391351
vt 0.710065 0.358988
vt 0.606016 0.394580
vt 0.542760 0.484533
vt 0.544458 0.594487
vt 0.610461 0.682444
vt 0.109968 0.348374
vt 0.991565 0.348374
vt 0.752171 0.709576
vt 0.209256 0.348374
vt 0.307560 0.348374
vt 0.402247 0.348374
vt 0.499703 0.348374
vt 0.599583 0.348374
vt 0.698618 0.348374
vt 0.798090 0.348374
vt 0.894412 0.348374
vn 0.809017 0.000000 -0.587785
vn 0.309017 0.000000 -0.951057
vn 0.305007 0.000000 -0.952350
vn 0.808949 0.000000 -0.587879
vn 0.309017 0.000000 -0.951057
vn -0.309017 0.000000 -0.951057
vn -0.308681 0.000000 -0.951166
vn 0.305007 0.000000 -0.952350
vn -0.309017 0.000000 -0.951057
vn -0.809017 0.000000 -0.587785
vn -0.809017 0.000000 -0.587785
vn -0.308681 0.000000 -0.951166
vn -0.809017 0.000000 -0.587785
vn -1.000000 0.000000 0.000000
vn -1.000000 0.000000 0.000108
vn -0.809017 0.000000 -0.587785
vn -1.000000 0.000000 0.000000
vn -0.809017 0.000000 0.587785
vn -0.809667 0.000829 0.586889
vn -1.000000 0.000000 0.000108
vn -0.809017 0.000000 0.587785
vn -0.309017 0.000000 0.951057
vn -0.308085 0.001794 0.951357
vn -0.809667 0.000829 0.586889
vn -0.309017 0.000000 0.951057
vn 0.309017 0.000000 0.951056
vn 0.312840 0.004140 0.949797
vn -0.308085 0.001794 0.951357
vn 0.309017 0.000000 0.951056
vn 0.809017 0.000000 0.587785
vn 0.806636 0.001719 0.591046
vn 0.312840 0.004140 0.949797
vn 0.809017 0.000000 0.587785
vn 1.000000 0.000000 0.000000
vn 0.999990 -0.001996 0.003961
vn 0.806636 0.001719 0.591046
vn 1.000000 0.000000 0.000000
vn 0.809017 0.000000 -0.587785
vn 0.808949 0.000000 -0.587879
vn 0.999990 -0.001996 0.003961
vn 0.000000 -1.000000 -0.000000
vn 0.000000 -1.000000 -0.000000
vn 0.000000 -1.000000 -0.000000
vn 0.000000 -1.000000 -0.000000
vn 0.000000 -1.000000 -0.000000
vn 0.000000 -1.000000 -0.000000
vn 0.000000 -1.000000 -0.000000
vn 0.000000 -1.000000 -0.000000
vn 0.000000 -1.000000 -0.000000
vn 0.000000 -1.000000 -0.000000
vn 0.000000 1.000000 -0.000000
vn 0.000000 1.000000 -0.000000
vn 0.000000 1.000000 -0.000000
vn 0.000000 1.000000 -0.000000
vn 0.000000 1.000000 -0.000000
vn 0.000000 1.000000 -0.000000
vn 0.000000 1.000000 -0.000000
vn 0.000000 1.000000 -0.000000
vn 0.000000 1.000000 -0.000000
vn 0.000000 1.000000 -0.000000
vn -0.731326 0.425683 0.532876
vn -0.229435 0.426953 0.874683
vn -0.143855 0.541922 0.828025
vn -0.576256 0.698928 0.423590
vn -0.229435 0.426953 0.874683
vn 0.277559 0.416393 0.865782
vn 0.269664 0.437825 0.857666
vn -0.143855 0.541922 0.828025
vn 0.277559 0.416393 0.865782
vn 0.729917 0.431257 0.530319
vn 0.718384 0.459898 0.521937
vn 0.269664 0.437825 0.857666
vn 0.729917 0.431257 0.530319
vn 0.909490 0.415724 -0.001087
vn 0.896685 0.442662 -0.002638
vn 0.718384 0.459898 0.521937
vn 0.909490 0.415724 -0.001087
vn 0.736726 0.430807 -0.521191
vn 0.730672 0.468615 -0.496506
vn 0.896685 0.442662 -0.002638
vn 0.736726 0.430807 -0.521191
vn 0.275052 0.418289 -0.865668
vn 0.258494 0.446437 -0.856665
vn 0.730672 0.468615 -0.496506
vn 0.275052 0.418289 -0.865668
vn -0.300698 0.428668 -0.851953
vn -0.254794 0.390280 -0.884738
vn 0.258494 0.446437 -0.856665
vn -0.300698 0.428668 -0.851953
vn -0.718232 0.419634 -0.555023
vn -0.733720 0.423384 -0.531414
vn -0.254794 0.390280 -0.884738
vn -0.718232 0.419634 -0.555023
vn -0.904247 0.425677 -0.033720
vn -0.807865 0.579448 -0.107679
vn -0.733720 0.423384 -0.531414
vn -0.904247 0.425677 -0.033720
vn -0.731326 0.425683 0.532876
vn -0.576256 0.698928 0.423590
vn -0.807865 0.579448 -0.107679
vn 0.808949 0.000000 -0.587879
vn 0.305007 0.000000 -0.952350
vn 0.171559 0.000000 -0.985174
vn 0.805258 0.000000 -0.592925
vn 0.004258 0.671165 0.741296
vn -0.065853 0.996034 0.059833
vn -0.576256 0.698928 0.423590
vn -0.143855 0.541922 0.828025
vn 0.305007 0.000000 -0.952350
vn -0.308681 0.000000 -0.951166
vn -0.299848 0.000000 -0.953987
vn 0.171559 0.000000 -0.985174
vn 0.261417 0.458234 0.849519
vn 0.004258 0.671165 0.741296
vn -0.143855 0.541922 0.828025
vn 0.269664 0.437825 0.857666
vn -0.308681 0.000000 -0.951166
vn -0.809017 0.000000 -0.587785
vn -0.809017 0.000000 -0.587786
vn -0.299848 0.000000 -0.953987
vn 0.707895 0.484113 0.514314
vn 0.261417 0.458234 0.849519
vn 0.269664 0.437825 0.857666
vn 0.718384 0.459898 0.521937
vn -0.809017 0.000000 -0.587785
vn -1.000000 0.000000 0.000108
vn -0.999996 0.000000 0.002990
vn -0.809017 0.000000 -0.587786
vn 0.883216 0.468947 -0.004352
vn 0.707895 0.484113 0.514314
vn 0.718384 0.459898 0.521937
vn 0.896685 0.442662 -0.002638
vn -1.000000 0.000000 0.000108
vn -0.809667 0.000829 0.586889
vn -0.827151 0.020264 0.561615
vn -0.999996 0.000000 0.002990
vn 0.727547 0.504141 -0.465313
vn 0.883216 0.468947 -0.004352
vn 0.896685 0.442662 -0.002638
vn 0.730672 0.468615 -0.496506
vn -0.809667 0.000829 0.586889
vn -0.308085 0.001794 0.951357
vn -0.289531 0.045953 0.956065
vn -0.827151 0.020264 0.561615
vn 0.228505 0.473528 -0.850621
vn 0.727547 0.504141 -0.465313
vn 0.730672 0.468615 -0.496506
vn 0.258494 0.446437 -0.856665
vn -0.308085 0.001794 0.951357
vn 0.312840 0.004140 0.949797
vn 0.283291 0.077002 0.955938
vn -0.289531 0.045953 0.956065
vn -0.419131 0.300427 -0.856781
vn 0.228505 0.473528 -0.850621
vn 0.258494 0.446437 -0.856665
vn -0.254794 0.390280 -0.884738
vn 0.312840 0.004140 0.949797
vn 0.806636 0.001719 0.591046
vn 0.822747 0.003123 0.568399
vn 0.283291 0.077002 0.955938
vn -0.692909 0.362579 -0.623229
vn -0.419131 0.300427 -0.856781
vn -0.254794 0.390280 -0.884738
vn -0.733720 0.423384 -0.531414
vn 0.806636 0.001719 0.591046
vn 0.999990 -0.001996 0.003961
vn 0.988444 -0.064001 0.137413
vn 0.822747 0.003123 0.568399
vn -0.642898 0.732751 -0.223063
vn -0.692909 0.362579 -0.623229
vn -0.733720 0.423384 -0.531414
vn -0.807865 0.579448 -0.107679
vn 0.999990 -0.001996 0.003961
vn 0.808949 0.000000 -0.587879
vn 0.805258 0.000000 -0.592925
vn 0.988444 -0.064001 0.137413
vn -0.065853 0.996034 0.059833
vn -0.642898 0.732751 -0.223063
vn -0.807865 0.579448 -0.107679
vn -0.576256 0.698928 0.423590
vn 0.319947 0.515435 0.794960
vn -0.333878 -0.530012 0.779495
vn -0.311930 -0.540525 0.781366
vn 0.360917 0.521511 0.773153
vn 0.360917 0.521511 0.773153
vn -0.311930 -0.540525 0.781366
vn -0.435698 -0.593494 0.676707
vn 0.373792 0.633178 0.677765
vn 0.373792 0.633178 0.677765
vn -0.435698 -0.593494 0.676707
vn -0.370246 -0.374345 0.850167
vn 0.154390 0.410271 0.898800
vn 0.833011 -0.553256 0.000000
vn 0.833011 -0.553256 0.000000
vn 0.833011 -0.553256 0.000000
vn 0.833011 -0.553256 0.000000
vn 0.154390 0.410271 -0.898800
vn -0.369863 -0.373165 -0.850852
vn -0.435698 -0.593494 -0.676708
vn 0.373792 0.633178 -0.677765
vn 0.373792 0.633178 -0.677765
vn -0.435698 -0.593494 -0.676708
vn -0.311930 -0.540525 -0.781366
vn 0.360917 0.521511 -0.773153
vn 0.360917 0.521511 -0.773153
vn -0.311930 -0.540525 -0.781366
vn -0.333878 -0.530012 -0.779495
vn 0.319947 0.515435 -0.794960
vn -0.266691 0.710320 -0.651400
vn -0.758508 -0.006469 -0.651631
vn -0.758509 -0.006469 0.651631
vn -0.266691 0.710320 0.651399
vn -0.333878 -0.530012 0.779495
vn -0.333878 -0.530012 -0.779495
vn -0.311930 -0.540525 -0.781366
vn -0.311930 -0.540525 0.781366
vn -0.311930 -0.540525 0.781366
vn -0.311930 -0.540525 -0.781366
vn -0.435698 -0.593494 -0.676708
vn -0.435698 -0.593494 0.676707
vn -0.435698 -0.593494 0.676707
vn -0.435698 -0.593494 -0.676708
vn -0.369863 -0.373165 -0.850852
vn -0.370246 -0.374345 0.850167
vn 0.319947 0.515435 -0.794960
vn 0.319947 0.515435 0.794960
vn 0.360917 0.521511 0.773153
vn 0.360917 0.521511 -0.773153
vn 0.360917 0.521511 -0.773153
vn 0.360917 0.521511 0.773153
vn 0.373792 0.633178 0.677765
vn 0.373792 0.633178 -0.677765
vn 0.373792 0.633178 -0.677765
vn 0.373792 0.633178 0.677765
vn 0.154390 0.410271 0.898800
vn 0.154390 0.410271 -0.898800
vn 0.319947 0.515435 -0.794960
vn -0.333878 -0.530012 -0.779495
vn -0.758508 -0.006469 -0.651631
vn -0.266691 0.710320 -0.651400
vn -0.333878 -0.530012 -0.779495
vn -0.333878 -0.530012 0.779495
vn -0.758509 -0.006469 0.651631
vn -0.758508 -0.006469 -0.651631
vn -0.333878 -0.530012 0.779495
vn 0.319947 0.515435 0.794960
vn -0.266691 0.710320 0.651399
vn -0.758509 -0.006469 0.651631
vn 0.319947 0.515435 0.794960
vn 0.319947 0.515435 -0.794960
vn -0.266691 0.710320 -0.651400
vn -0.266691 0.710320 0.651399
vn 0.154390 0.410271 0.898800
vn -0.370246 -0.374345 0.850167
vn -0.106047 -0.151220 0.982795
vn 0.011695 0.015159 0.999817
vn -0.369863 -0.373165 -0.850852
vn 0.154390 0.410271 -0.898800
vn 0.011695 0.015159 -0.999817
vn -0.105180 -0.147286 -0.983486
vn 0.399662 0.916662 0.000000
vn 0.399662 0.916662 0.000000
vn 0.399662 0.916662 0.000000
vn 0.399662 0.916662 0.000000
vn -0.984529 -0.175221 0.000000
vn -0.984529 -0.175221 0.000000
vn -0.998600 -0.052903 0.000000
vn -0.998600 -0.052903 0.000000
vn -0.369863 -0.373165 -0.850852
vn -0.105180 -0.147286 -0.983486
vn -0.467806 -0.383514 -0.796288
vn -0.501135 -0.414820 -0.759466
vn 0.710559 -0.703638 0.000476
vn 0.710559 -0.703638 0.000476
vn 0.724651 -0.689116 0.000367
vn 0.724848 -0.688909 0.000366
vn -0.106047 -0.151220 0.982795
vn -0.370246 -0.374345 0.850167
vn -0.499710 -0.423919 0.755369
vn -0.463597 -0.389503 0.795842
vn -0.998600 -0.052903 0.000000
vn -0.998600 -0.052903 0.000000
vn -0.853162 0.521646 0.000000
vn -0.853162 0.521646 0.000000
vn -0.501135 -0.414820 -0.759466
vn -0.467806 -0.383514 -0.796288
vn -0.214632 -0.173378 -0.961183
vn -0.228618 -0.182731 -0.956213
vn 0.724848 -0.688909 0.000366
vn 0.724651 -0.689116 0.000367
vn 0.775780 -0.631003 -0.000211
vn 0.775801 -0.630978 -0.000211
vn -0.463597 -0.389503 0.795842
vn -0.499710 -0.423919 0.755369
vn -0.214317 -0.169480 0.961948
vn -0.202227 -0.160446 0.966106
vn -0.853162 0.521646 0.000000
vn -0.853162 0.521646 0.000000
vn -0.422267 0.906472 0.000000
vn -0.422267 0.906472 0.000000
vn -0.228618 -0.182731 -0.956213
vn -0.214632 -0.173378 -0.961183
vn -0.089202 -0.071901 -0.993415
vn -0.088315 -0.070952 -0.993562
vn 0.775801 -0.630978 -0.000211
vn 0.775780 -0.631003 -0.000211
vn 0.827704 -0.561163 -0.001459
vn 0.828773 -0.559583 -0.001482
vn -0.202227 -0.160446 0.966106
vn -0.214317 -0.169480 0.961948
vn -0.092660 -0.070330 0.993211
vn -0.093470 -0.071126 0.993078
vn -0.422267 0.906472 0.000000
vn -0.422267 0.906472 0.000000
vn -0.174153 0.984719 0.000000
vn -0.088315 -0.070952 -0.993562
vn -0.089202 -0.071901 -0.993415
vn -0.071249 -0.046914 -0.996355
vn -0.069589 -0.043567 -0.996624
vn 0.828773 -0.559583 -0.001482
vn 0.827704 -0.561163 -0.001459
vn 0.869195 -0.494463 -0.002373
vn 0.869195 -0.494463 -0.002373
vn -0.093470 -0.071126 0.993078
vn -0.092660 -0.070330 0.993211
vn -0.073488 -0.045167 0.996273
vn -0.075778 -0.048778 0.995931
vn -0.069589 -0.043567 -0.996624
vn -0.071249 -0.046914 -0.996355
vn -0.059228 -0.022707 -0.997986
vn -0.059228 -0.022707 -0.997986
vn 0.783738 -0.621091 0.000000
vn 0.783739 -0.621091 0.000000
vn 0.783738 -0.621091 0.000000
vn 0.783738 -0.621091 0.000000
vn -0.075778 -0.048778 0.995931
vn -0.073488 -0.045167 0.996273
vn -0.059228 -0.022707 0.997986
vn -0.059228 -0.022707 0.997986
vn 0.011695 0.015159 0.999817
vn -0.106047 -0.151220 0.982795
vn 0.508064 -0.337437 0.792469
vn 0.508064 -0.337437 0.792469
vn -0.148275 -0.988946 0.000000
vn -0.148275 -0.988946 0.000000
vn -0.148275 -0.988946 0.000000
vn -0.148275 -0.988946 0.000000
vn -0.105180 -0.147286 -0.983486
vn 0.011695 0.015159 -0.999817
vn 0.508064 -0.337437 -0.792469
vn 0.508064 -0.337437 -0.792469
vn 0.986717 -0.162446 0.000000
vn 0.986718 -0.162446 0.000000
vn 0.854045 0.520200 0.000000
vn 0.854045 0.520200 0.000000
vn -0.049122 -0.014206 -0.998692
vn -0.049122 -0.014206 -0.998692
vn -0.060080 -0.035980 -0.997545
vn -0.051745 -0.019414 -0.998472
vn 0.823956 -0.566654 0.000000
vn 0.823956 -0.566654 0.000000
vn 0.823956 -0.566654 0.000000
vn 0.823956 -0.566654 0.000000
vn -0.049122 -0.014206 0.998692
vn -0.049122 -0.014206 0.998692
vn -0.051745 -0.019414 0.998472
vn -0.060080 -0.035980 0.997545
vn -0.051745 -0.019414 -0.998472
vn -0.060080 -0.035980 -0.997545
vn -0.091542 -0.106280 -0.990113
vn -0.084955 -0.086753 -0.992601
vn 0.903478 -0.428634 0.000000
vn 0.903478 -0.428634 0.000000
vn 0.903478 -0.428634 0.000000
vn 0.903478 -0.428634 0.000000
vn -0.060080 -0.035980 0.997545
vn -0.051745 -0.019414 0.998472
vn -0.084955 -0.086753 0.992601
vn -0.091542 -0.106280 0.990113
vn -0.084955 -0.086753 -0.992601
vn -0.091542 -0.106280 -0.990113
vn -0.104321 -0.144374 -0.984009
vn -0.104321 -0.144374 -0.984009
vn 0.928094 -0.372345 0.000000
vn 0.928094 -0.372345 0.000000
vn 0.928094 -0.372345 0.000000
vn -0.091542 -0.106280 0.990113
vn -0.084955 -0.086753 0.992601
vn -0.104321 -0.144374 0.984009
vn -0.104321 -0.144374 0.984009
vn -0.833011 0.553256 0.000000
vn -0.833011 0.553256 0.000000
vn -0.833011 0.553256 0.000000
vn -0.833011 0.553256 0.000000
vn 0.154390 0.410271 0.898800
vn 0.011695 0.015159 0.999817
vn -0.049004 0.094741 0.994295
vn -0.049004 0.094741 0.994295
vn 0.986718 -0.162446 0.000000
vn 0.986717 -0.162446 0.000000
vn 0.905760 -0.423792 0.000000
vn 0.905760 -0.423792 0.000000
vn 0.011695 0.015159 -0.999817
vn 0.154390 0.410271 -0.898800
vn -0.049004 0.094741 -0.994295
vn -0.049004 0.094741 -0.994295
s off
g polySurface1
f 1/152/1 2/161/2 12/3/3 11/4/4
f 2/161/5 3/160/6 13/6/7 12/3/8
f 3/160/9 4/159/10 14/8/11 13/6/12
f 4/159/13 5/158/14 15/10/15 14/8/16
f 5/158/17 6/157/18 16/12/19 15/10/20
f 6/157/21 7/156/22 17/14/23 16/12/24
f 7/156/25 8/155/26 18/16/27 17/14/28
f 8/155/29 9/154/30 19/18/31 18/16/32
f 9/154/33 10/151/34 20/20/35 19/18/36
f 10/151/37 1/1/38 11/141/39 20/20/40
f 1/153/41 10/19/42 9/17/43 8/15/44 7/13/45 6/11/46 5/9/47 4/7/48 3/5/49 2/2/50
f 21/137/51 22/150/52 23/149/53 24/148/54 25/147/55 26/146/56 27/145/57 28/144/58 29/143/59 30/142/60
f 31/140/61 32/32/62 33/33/63 34/34/64
f 32/32/65 35/35/66 36/36/67 33/33/68
f 35/35/69 37/37/70 38/38/71 36/36/72
f 37/37/73 39/39/74 40/40/75 38/38/76
f 39/39/77 41/41/78 42/42/79 40/40/80
f 41/41/81 43/43/82 44/44/83 42/42/84
f 43/43/85 45/45/86 46/46/87 44/44/88
f 45/45/89 47/47/90 48/48/91 46/46/92
f 47/47/93 49/49/94 50/50/95 48/48/96
f 49/49/97 31/31/98 34/139/99 50/50/100
f 11/4/101 12/3/102 32/32/103 31/140/104
f 22/22/105 21/138/106 34/34/107 33/33/108
f 12/3/109 13/6/110 35/35/111 32/32/112
f 23/23/113 22/22/114 33/33/115 36/36/116
f 13/6/117 14/8/118 37/37/119 35/35/120
f 24/24/121 23/23/122 36/36/123 38/38/124
f 14/8/125 15/10/126 39/39/127 37/37/128
f 25/25/129 24/24/130 38/38/131 40/40/132
f 15/10/133 16/12/134 41/41/135 39/39/136
f 26/26/137 25/25/138 40/40/139 42/42/140
f 16/12/141 17/14/142 43/43/143 41/41/144
f 27/27/145 26/26/146 42/42/147 44/44/148
f 17/14/149 18/16/150 45/45/151 43/43/152
f 28/28/153 27/27/154 44/44/155 46/46/156
f 18/16/157 19/18/158 47/47/159 45/45/160
f 29/29/161 28/28/162 46/46/163 48/48/164
f 19/18/165 20/20/166 49/49/167 47/47/168
f 30/30/169 29/29/170 48/48/171 50/50/172
f 20/20/173 11/141/174 31/31/175 49/49/176
f 21/21/177 30/30/178 50/50/179 34/139/180
f 51/51/181 52/52/182 54/136/183 53/54/184
f 53/54/185 54/136/186 56/135/187 55/56/188
f 55/56/189 56/135/190 58/126/191 57/109/192
f 93/59/193 94/60/194 95/61/195 96/62/196
f 59/132/197 60/133/198 62/65/199 61/66/200
f 61/66/201 62/65/202 64/67/203 63/68/204
f 63/68/205 64/67/206 66/69/207 65/70/208
f 67/71/209 68/134/210 69/130/211 70/74/212
f 52/129/213 66/69/214 64/67/215 54/53/216
f 54/53/217 64/67/218 62/65/219 56/55/220
f 56/55/221 62/65/222 60/133/223 58/125/224
f 65/70/225 51/51/226 53/54/227 63/68/228
f 63/68/229 53/54/230 55/56/231 61/66/232
f 61/66/233 55/56/234 57/109/235 59/132/236
f 65/70/237 66/69/238 68/72/239 67/71/240
f 66/69/241 52/129/242 69/73/243 68/72/244
f 52/52/245 51/51/246 70/74/247 69/131/248
f 51/51/249 65/70/250 67/71/251 70/74/252
f 57/58/253 58/127/254 72/124/255 71/76/256
f 60/64/257 59/63/258 74/77/259 73/123/260
f 106/128/261 105/111/262 107/81/263 108/82/264
f 58/57/265 60/64/266 76/83/267 75/84/268
f 60/64/269 73/123/270 77/85/271 76/83/272
f 73/123/273 72/124/274 78/86/275 77/85/276
f 72/124/277 58/127/278 75/122/279 78/86/280
f 75/84/281 76/83/282 80/87/283 79/88/284
f 76/83/285 77/85/286 81/89/287 80/87/288
f 77/85/289 78/86/290 82/90/291 81/89/292
f 78/86/293 75/122/294 79/121/295 82/90/296
f 79/88/297 80/87/298 84/91/299 83/92/300
f 80/87/301 81/89/302 85/93/303 84/91/304
f 81/89/305 82/90/306 86/94/307 85/93/308
f 82/90/309 79/121/310 83/120/311 86/94/312
f 83/92/313 84/91/314 87/95/315
f 84/91/316 85/93/317 88/96/318 87/95/319
f 85/93/320 86/94/321 89/97/322 88/96/323
f 86/94/324 83/120/325 87/119/326 89/97/327
f 87/95/328 88/96/329 91/98/330 90/99/331
f 88/96/332 89/97/333 92/100/334 91/98/335
f 89/97/336 87/119/337 90/116/338 92/100/339
f 71/118/340 72/75/341 94/60/342 93/59/343
f 72/75/344 73/78/345 95/61/346 94/60/347
f 73/78/348 74/117/349 96/62/350 95/61/351
f 74/117/352 71/118/353 93/59/354 96/62/355
f 90/99/356 91/98/357 98/101/358 97/102/359
f 91/98/360 92/100/361 99/103/362 98/101/363
f 92/100/364 90/116/365 97/115/366 99/103/367
f 97/102/368 98/101/369 101/104/370 100/105/371
f 98/101/372 99/103/373 102/106/374 101/104/375
f 99/103/376 97/115/377 100/114/378 102/106/379
f 100/105/380 101/104/381 104/107/382 103/113/383
f 101/104/384 102/106/385 104/107/386
f 102/106/387 100/114/388 103/108/389 104/107/390
f 59/63/391 57/110/392 105/80/393 106/79/394
f 57/58/395 71/76/396 107/81/397 105/112/398
f 71/76/399 74/77/400 108/82/401 107/81/402
f 74/77/403 59/63/404 106/79/405 108/82/406
