# This file uses meters as units for non-parametric coordinates.

g default
v -50.000000 5.602823 50.000000
v 50.000000 5.602823 50.000000
v -50.000000 28.191326 50.000000
v 50.000000 28.191326 50.000000
v -50.000000 28.191326 -50.000000
v 50.000000 28.191326 -50.000000
v -50.000000 5.602823 -50.000000
v 50.000000 5.602823 -50.000000
v -29.019272 38.657913 24.113329
v 29.019272 38.657913 24.113329
v 29.019272 38.657913 -24.113329
v -29.019272 38.657913 -24.113329
v -29.019272 54.745289 22.669815
v 29.019272 54.745289 22.669815
v 29.019272 54.745289 -22.669815
v -29.019272 54.745289 -22.669815
v -46.005497 72.616554 16.979094
v 46.005497 72.616554 16.979094
v 46.005497 72.616554 -16.979094
v -46.005497 72.616554 -16.979094
v -52.093063 100.141090 25.985064
v 52.093063 100.141090 25.985064
v 52.093063 100.141090 -25.985064
v -52.093063 100.141090 -25.985064
v 85.888397 84.418716 11.791601
v 85.888397 84.418716 -11.791601
v 90.322159 100.141090 -16.401781
v 90.322159 100.141090 16.401781
v -46.005497 74.566460 15.533496
v -46.005497 74.566460 -15.533496
v -52.093063 97.278214 15.533496
v -52.093063 97.278214 -15.533496
v -60.288242 74.566460 15.533496
v -60.288242 74.566460 -15.533496
v -60.288307 97.278214 15.533496
v -60.288307 97.278214 -15.533496
v -60.288246 76.299210 6.310835
v -60.288246 76.299210 -6.310835
v -60.288303 95.533768 6.310835
v -60.288303 95.533768 -6.310835
v -120.959908 94.157379 1.311677
v -120.959908 94.157379 -1.311677
v -120.959961 95.533813 1.311677
v -120.959961 95.533813 -1.311677
v -95.132637 95.533791 4.219474
v -95.132584 79.783302 4.219474
v -95.132584 79.783302 -4.219474
v -95.132637 95.533791 -4.219474
v 17.364349 100.141083 25.985062
v 17.364349 100.141083 -25.985062
v 15.335162 72.616554 -16.979094
v 9.673088 54.745289 -22.669815
v 9.673088 42.676052 -24.113329
v 16.666664 28.191326 -27.602709
v 16.666664 5.602823 -27.602709
v 16.666664 5.602823 27.602709
v 16.666664 28.191326 27.602709
v 9.673088 42.676052 24.113329
v 9.673088 54.745289 22.669815
v 15.335162 72.616554 16.979094
v -17.364357 100.141083 25.985062
v -17.364357 100.141083 -25.985062
v -15.335167 72.616554 -16.979094
v -9.673092 54.745289 -22.669815
v -9.673092 42.676052 -24.113329
v -16.666668 28.191326 -27.602709
v -16.666668 5.602823 -27.602709
v -16.666668 5.602823 27.602709
v -16.666668 28.191326 27.602709
v -9.673092 42.676052 24.113329
v -9.673092 54.745289 22.669815
v -15.335167 72.616554 16.979094
v 57.796951 5.602823 -50.000000
v 57.796951 5.602823 50.000000
v 57.796951 28.191326 -50.000000
v 57.796951 28.191326 50.000000
v -57.796951 5.602823 -50.000000
v -57.796951 5.602823 50.000000
v -57.796951 28.191326 50.000000
v -57.796951 28.191326 -50.000000
v -48.905220 85.678406 -23.073048
v -16.301743 85.678406 -23.073048
v 16.301735 85.678406 -23.073048
v 48.905220 85.678406 -23.073048
v 88.000351 91.907837 -16.874386
v 88.000351 91.907837 16.874386
v 48.905220 85.678406 23.073048
v 16.301735 85.678406 23.073048
v -16.301743 85.678406 23.073048
v -48.905220 85.678406 23.073048
v -48.905220 85.384872 15.533497
v -60.288277 85.384872 15.533497
v -60.288277 85.461304 11.997049
v -95.132607 87.285812 8.021328
v -120.959930 94.813026 2.087968
v -120.959930 94.813026 -2.087968
v -95.132607 87.285812 -8.021328
v -60.288277 85.461304 -11.997049
v -60.288277 85.384872 -15.533497
v -48.905220 85.384872 -15.533497
vt 0.624567 0.893857
vt 0.727009 0.838994
vt 0.706900 0.004393
vt 0.522649 0.890175
vt 0.569672 0.305749
vt 0.656044 0.305749
vt 0.316155 0.305749
vt 0.401117 0.305749
vt 0.665153 0.591871
vt 0.743110 0.644224
vt 0.726129 0.693184
vt 0.639593 0.636145
vt 0.906299 0.864669
vt 0.897055 0.652884
vt 0.944878 0.650935
vt 0.892015 0.906638
vt 0.620134 0.633421
vt 0.602419 0.895533
vt 0.543114 0.891552
vt 0.647400 0.582293
vt 0.617518 0.075047
vt 0.551118 0.075047
vt 0.877541 0.901700
vt 0.961371 0.650250
vt 0.230269 0.075047
vt 0.748592 0.075047
vt 0.421538 0.075047
vt 0.356222 0.075047
vt 0.617518 0.129109
vt 0.551118 0.129109
vt 0.230269 0.129109
vt 0.748592 0.129109
vt 0.421538 0.129109
vt 0.356222 0.129109
vt 0.646920 0.191167
vt 0.568342 0.191167
vt 0.188649 0.191167
vt 0.766617 0.191167
vt 0.414997 0.191167
vt 0.337701 0.191167
vt 0.647004 0.248896
vt 0.565990 0.248896
vt 0.823380 0.428023
vt 0.814432 0.534104
vt 0.786531 0.537251
vt 0.785658 0.427360
vt 0.407892 0.248896
vt 0.328201 0.248896
vt 0.295589 0.964936
vt 0.314050 0.969757
vt 0.194423 0.951588
vt 0.226612 0.951002
vt 0.785802 0.619839
vt 0.752628 0.615674
vt 0.826542 0.305749
vt 0.756736 0.425421
vt 0.758544 0.539165
vt 0.806925 0.248896
vt 0.092853 0.526271
vt 0.322439 0.517838
vt 0.120637 0.543096
vt 0.438754 0.290732
vt 0.148565 0.550534
vt 0.443194 0.248896
vt 0.081391 0.566114
vt 0.315610 0.565928
vt 0.118555 0.577592
vt 0.261688 0.570660
vt 0.148026 0.576743
vt 0.290334 0.570146
vt 0.068340 0.598252
vt 0.346966 0.580800
vt 0.120382 0.591038
vt 0.231447 0.582171
vt 0.179302 0.584953
vt 0.291027 0.582218
vt 0.089858 0.777666
vt 0.340520 0.757972
vt 0.137927 0.771824
vt 0.238134 0.766465
vt 0.189704 0.769729
vt 0.292039 0.760828
vt 0.219019 0.949739
vt 0.200587 0.947239
vt 0.744529 0.305749
vt 0.232796 0.305749
vt 0.261864 0.191167
vt 0.250013 0.248896
vt 0.292138 0.129109
vt 0.292138 0.075047
vt 0.800070 0.652586
vt 0.808757 0.697541
vt 0.881347 0.654446
vt 0.813924 0.828152
vt 0.890531 0.864474
vt 0.812852 0.004393
vt 0.685543 0.075047
vt 0.685543 0.129109
vt 0.727421 0.191167
vt 0.730000 0.248896
vt 0.288287 0.533972
vt 0.258523 0.544282
vt 0.223802 0.955507
vt 0.193229 0.946413
vt 0.528673 0.248896
vt 0.529886 0.290732
vt 0.560740 0.629240
vt 0.633030 0.993175
vt 0.401653 0.004393
vt 0.666757 0.982661
vt 0.954103 0.862648
vt 0.878565 0.611905
vt 0.911054 0.004393
vt 0.003352 0.004393
vt 0.864431 0.618122
vt 0.756243 0.894543
vt 0.811559 0.874417
vt 0.299920 0.004393
vt 0.200107 0.004393
vt 0.316242 0.410378
vt 0.232561 0.410378
vt 0.151773 0.410378
vt 0.388831 0.767090
vt 0.199263 0.956931
vt 0.186631 0.948124
vt 0.217727 0.959381
vt 0.399572 0.588776
vt 0.436034 0.588416
vt 0.520532 0.199410
vt 0.443013 0.532974
vt 0.450472 0.199410
vt 0.830653 0.319350
vt 0.401533 0.410378
vt 0.165814 0.129109
vt 0.165814 0.075047
vt 0.795961 0.318408
vt 0.665797 0.432241
vt 0.174528 0.248896
vt 0.152319 0.305749
vt 0.955582 0.544352
vt 0.147788 0.191167
vt 0.760296 0.319593
vt 0.670562 0.539133
vt 0.818235 0.621981
vt 0.958027 0.428161
vt 0.970615 0.861953
vt 0.103744 0.004393
vt 0.603479 0.004393
vt 0.540254 0.627824
vn 0.478236 0.000000 0.878231
vn 0.318467 0.000000 0.947934
vn 0.318467 0.000000 0.947934
vn 0.478236 0.000000 0.878231
vn 0.000000 1.000000 0.000000
vn 0.000000 1.000000 0.000000
vn 0.000000 1.000000 0.000000
vn 0.000000 1.000000 0.000000
vn 0.478236 0.000000 -0.878231
vn 0.318467 0.000000 -0.947934
vn 0.318467 0.000000 -0.947934
vn 0.478236 0.000000 -0.878231
vn 0.000000 -1.000000 0.000000
vn 0.000000 -1.000000 0.000000
vn 0.000000 -1.000000 0.000000
vn 0.000000 -1.000000 0.000000
vn 1.000000 0.000000 0.000000
vn 1.000000 0.000000 0.000000
vn 1.000000 0.000000 0.000000
vn 1.000000 0.000000 0.000000
vn -1.000000 0.000000 0.000000
vn -1.000000 0.000000 0.000000
vn -1.000000 0.000000 0.000000
vn -1.000000 0.000000 0.000000
vn -0.207669 0.976904 0.050313
vn 0.185989 0.473770 0.860785
vn 0.049794 0.251214 0.966650
vn -0.525104 0.826488 0.202936
vn 0.207669 0.976904 0.050313
vn 0.207669 0.976904 -0.050313
vn 0.525104 0.826488 -0.202936
vn 0.525104 0.826488 0.202936
vn 0.185989 0.473770 -0.860785
vn -0.207669 0.976904 -0.050313
vn -0.525104 0.826488 -0.202936
vn 0.049794 0.251214 -0.966650
vn -0.002013 0.236359 0.971664
vn -0.003026 0.247194 0.968961
vn 0.924901 -0.380208 0.000000
vn 0.924901 -0.380208 0.000000
vn -0.003026 0.247194 -0.968961
vn -0.002013 0.236359 -0.971664
vn -0.924901 -0.380208 0.000000
vn -0.924901 -0.380208 0.000000
vn 0.000000 -0.058584 0.998282
vn 0.000000 -0.197352 0.980333
vn 0.523753 -0.851870 0.000000
vn 0.523753 -0.851870 0.000000
vn 0.000000 -0.197352 -0.980333
vn 0.000000 -0.058584 -0.998282
vn -0.740229 -0.672354 0.000000
vn -0.740229 -0.672354 0.000000
vn 0.000000 -0.307446 0.951566
vn 0.000000 -0.292702 0.956204
vn 0.962462 -0.271418 0.000000
vn 0.962462 -0.271418 0.000000
vn 0.962462 -0.271418 0.000000
vn 0.962462 -0.271418 0.000000
vn 0.000000 -0.292702 -0.956204
vn 0.000000 -0.307446 -0.951566
vn -1.000000 -0.000041 0.000000
vn -1.000000 -0.000041 0.000000
vn -1.000000 -0.000044 0.000000
vn -1.000000 -0.000044 0.000000
vn 0.283757 -0.958896 0.000000
vn 0.283757 -0.958896 0.000000
vn 0.078084 -0.304289 -0.949374
vn 0.110617 -0.334971 -0.935713
vn 0.223885 -0.302364 -0.926527
vn 0.235437 -0.508022 -0.828543
vn 0.000000 1.000000 0.000000
vn 0.000000 1.000000 0.000000
vn 0.000000 1.000000 0.000000
vn 0.000000 1.000000 0.000000
vn 0.110617 -0.334971 0.935713
vn 0.078084 -0.304289 0.949374
vn 0.235437 -0.508022 0.828543
vn 0.223885 -0.302364 0.926527
vn -1.000000 -0.000001 0.000000
vn -1.000000 -0.000001 0.000000
vn -0.973296 -0.225750 -0.041616
vn -0.971395 -0.236358 0.022941
vn -0.971910 -0.234938 0.013937
vn -0.973296 -0.225750 -0.041616
vn -1.000000 -0.000002 0.000000
vn -1.000000 -0.000002 0.000000
vn -1.000000 -0.000002 0.000000
vn -1.000000 -0.000002 0.000000
vn -0.971910 -0.234938 -0.013937
vn -0.971395 -0.236358 -0.022941
vn -0.973296 -0.225750 0.041616
vn -0.973296 -0.225750 0.041616
vn 0.000000 -1.000000 0.000000
vn 0.000000 -1.000000 0.000000
vn 0.000000 -1.000000 0.000000
vn 0.000000 -1.000000 0.000000
vn 0.000000 -0.000000 1.000000
vn 0.000000 -0.000000 1.000000
vn 0.000000 -0.000000 1.000000
vn 0.000000 -0.000000 1.000000
vn 0.000000 1.000000 0.000000
vn 0.000000 1.000000 0.000000
vn 0.000000 1.000000 0.000000
vn 0.000000 1.000000 0.000000
vn 0.000000 -0.000000 -1.000000
vn 0.000000 -0.000000 -1.000000
vn 0.000000 -0.000000 -1.000000
vn 0.000000 -0.000000 -1.000000
vn -1.000000 -0.000003 0.000000
vn -1.000000 -0.000003 0.000000
vn -1.000000 -0.000003 0.000000
vn -1.000000 -0.000003 0.000000
vn -1.000000 -0.000003 -0.000000
vn -1.000000 -0.000003 -0.000000
vn -1.000000 -0.000003 -0.000000
vn -1.000000 -0.000003 -0.000000
vn -1.000000 -0.000003 0.000000
vn -1.000000 -0.000003 0.000000
vn -1.000000 -0.000003 0.000000
vn -1.000000 -0.000003 0.000000
vn -1.000000 -0.000003 0.000000
vn -1.000000 -0.000003 0.000000
vn -1.000000 -0.000003 0.000000
vn -1.000000 -0.000003 0.000000
vn -0.099494 -0.995038 0.000000
vn -0.099494 -0.995038 0.000000
vn -0.213720 -0.976895 0.000000
vn -0.213720 -0.976895 0.000000
vn -0.112626 -0.491632 0.863489
vn -0.100893 -0.015275 0.994780
vn -0.140735 -0.010737 0.989989
vn -0.161401 -0.487196 0.858248
vn 0.000001 1.000000 0.000000
vn 0.000001 1.000000 0.000000
vn 0.000001 1.000000 0.000000
vn 0.000001 1.000000 0.000000
vn -0.100893 -0.015275 -0.994780
vn -0.112626 -0.491632 -0.863489
vn -0.161401 -0.487196 -0.858248
vn -0.140735 -0.010738 -0.989989
vn -0.223255 0.053954 0.973266
vn -0.336015 -0.460929 0.821364
vn -0.486304 -0.873790 0.000000
vn -0.486304 -0.873790 0.000000
vn -0.336015 -0.460928 -0.821364
vn -0.223255 0.053954 -0.973266
vn 0.000001 1.000000 0.000000
vn 0.000001 1.000000 0.000000
vn -0.000000 1.000000 0.000000
vn -0.000000 1.000000 0.000000
vn -0.000000 1.000000 0.000000
vn -0.000000 1.000000 0.000000
vn 0.000000 -0.058584 -0.998282
vn -0.000000 -0.307446 -0.951566
vn 0.003026 0.247194 -0.968961
vn 0.002013 0.236359 -0.971664
vn -0.049794 0.251214 -0.966650
vn -0.185988 0.473770 -0.860785
vn -0.318467 0.000000 -0.947934
vn -0.318467 0.000000 -0.947934
vn -0.478236 0.000000 -0.878231
vn -0.478236 0.000000 -0.878231
vn 0.000000 -1.000000 0.000000
vn 0.000000 -1.000000 0.000000
vn 0.000000 -1.000000 0.000000
vn 0.000000 -1.000000 0.000000
vn -0.318467 0.000000 0.947934
vn -0.318467 0.000000 0.947934
vn -0.478236 0.000000 0.878231
vn -0.478236 0.000000 0.878231
vn -0.049794 0.251214 0.966650
vn -0.185989 0.473770 0.860785
vn 0.002013 0.236359 0.971664
vn 0.003026 0.247194 0.968961
vn 0.000000 -0.058584 0.998282
vn -0.000000 -0.307446 0.951566
vn 0.000000 -1.000000 0.000000
vn 0.000000 -1.000000 0.000000
vn 0.000000 0.000000 -1.000000
vn 0.000000 0.000000 -1.000000
vn 0.000000 1.000000 0.000000
vn 0.000000 1.000000 0.000000
vn 0.000000 0.000000 1.000000
vn 0.000000 0.000000 1.000000
vn 0.000000 -1.000000 0.000000
vn 0.000000 -1.000000 0.000000
vn 0.000000 0.000000 1.000000
vn 0.000000 0.000000 1.000000
vn 0.000000 1.000000 0.000000
vn 0.000000 1.000000 0.000000
vn 0.000000 0.000000 -1.000000
vn 0.000000 0.000000 -1.000000
vn 0.000000 -0.197386 -0.980326
vn 0.000000 -0.197386 -0.980326
vn -0.000000 -0.197386 -0.980326
vn 0.112365 -0.175597 -0.978029
vn 0.209517 -0.154636 -0.965500
vn 0.962462 -0.271418 0.000000
vn 0.962462 -0.271418 0.000000
vn 0.112365 -0.175597 0.978028
vn 0.209517 -0.154636 0.965500
vn -0.000000 -0.197386 0.980326
vn 0.000000 -0.197386 0.980326
vn 0.000000 -0.197386 0.980326
vn -0.970038 -0.239297 0.041983
vn -0.970038 -0.239297 0.041983
vn 0.000000 0.000000 1.000000
vn 0.000000 0.000000 1.000000
vn -1.000000 -0.000003 0.000000
vn -1.000000 -0.000003 0.000000
vn -0.065129 0.458904 0.886096
vn -0.070836 0.457293 0.886490
vn -0.085876 0.452968 0.887381
vn -1.000000 -0.000047 0.000000
vn -1.000000 -0.000047 0.000000
vn -0.070836 0.457293 -0.886490
vn -0.085876 0.452968 -0.887381
vn -0.065129 0.458904 -0.886096
vn -1.000000 -0.000003 -0.000000
vn -1.000000 -0.000003 -0.000000
vn 0.000000 0.000000 -1.000000
vn 0.000000 0.000000 -1.000000
vn -0.970038 -0.239296 -0.041983
vn -0.970038 -0.239297 -0.041983
s 1
g pCube1
f 1/1/1 68/2/2 69/116/3 3/110/4
s 2
f 21/133/5 61/120/6 62/7/7 24/8/8
s 3
f 5/9/9 66/10/10 67/11/11 7/12/12
s 4
f 7/12/13 67/11/14 68/2/15 1/1/16
s off
f 74/13/17 73/14/18 75/15/19 76/111/20
f 77/17/21 78/18/22 79/19/23 80/107/24
s 5
f 3/148/25 69/3/26 70/21/27 9/22/28
f 4/114/29 6/147/30 11/25/31 10/135/32
f 66/118/33 5/109/34 12/27/35 65/28/36
f 5/109/34 3/148/25 9/22/28 12/27/35
f 9/22/28 70/21/27 71/29/37 13/30/38
f 10/135/32 11/25/31 15/31/39 14/134/40
f 65/28/36 12/27/35 16/33/41 64/34/42
f 12/27/35 9/22/28 13/30/43 16/33/44
f 13/30/38 71/29/37 72/35/45 17/36/46
f 14/134/40 15/31/39 19/37/47 18/141/48
f 64/34/42 16/33/41 20/39/49 63/40/50
f 16/33/44 13/30/43 17/36/51 20/39/52
f 17/36/46 72/35/45 89/41/53 90/42/54
s 7
f 25/43/55 26/44/56 85/45/57 86/46/58
s 5
f 63/40/50 20/39/49 81/47/59 82/48/60
s 8
f 42/126/61 41/124/62 95/51/63 96/103/64
s 5
f 18/145/48 19/140/47 26/44/65 25/43/66
f 19/144/67 84/53/68 85/45/69 26/44/70
s off
f 23/143/71 22/137/72 28/56/73 27/57/74
s 5
f 87/136/75 18/132/76 25/43/77 86/46/78
f 20/39/52 17/36/51 29/129/79 30/131/80
s 11
f 17/36/81 90/42/82 91/105/83 29/129/84
s off
f 21/5/85 24/8/86 32/62/87 31/106/88
s 12
f 100/64/89 81/47/90 20/39/91 30/131/92
s off
f 30/60/93 29/130/94 33/128/95 34/66/96
s 13
f 29/59/97 91/61/98 92/67/99 33/65/100
s off
f 31/63/101 32/102/102 36/68/103 35/69/104
s 14
f 100/101/105 30/60/106 34/66/107 99/70/108
s off
f 34/66/109 33/128/110 37/127/111 38/72/112
s 15
f 33/65/113 92/67/114 93/73/115 37/71/116
s off
f 35/69/117 36/68/118 40/74/119 39/75/120
s 16
f 99/70/121 34/66/122 38/72/123 98/76/124
s 17
f 38/72/125 37/127/126 46/123/127 47/78/128
s 18
f 37/71/129 93/73/130 94/79/131 46/77/132
s 19
f 39/75/133 40/74/134 48/80/135 45/81/136
s 20
f 98/76/137 38/72/138 47/78/139 97/82/140
s 18
f 46/77/132 94/79/131 95/104/141 41/125/142
s 17
f 47/78/128 46/123/127 41/50/143 42/49/144
s 20
f 97/82/140 47/78/139 42/49/145 96/52/146
s 19
f 45/81/136 48/80/135 44/83/147 43/84/148
s 2
f 49/121/149 22/122/150 23/139/151 50/86/152
s 5
f 19/37/67 51/87/153 83/88/154 84/138/68
f 15/31/155 52/89/156 51/87/153 19/37/67
f 11/25/31 53/90/157 52/89/156 15/31/155
f 6/147/30 54/119/158 53/90/157 11/25/31
s 3
f 55/92/159 54/91/160 6/115/161 8/93/162
s 4
f 56/94/163 55/92/164 8/93/165 2/95/166
s 1
f 57/117/167 56/94/168 2/95/169 4/23/170
s 5
f 58/97/171 57/96/172 4/113/29 10/26/32
f 59/98/173 58/97/171 10/26/32 14/32/174
f 60/99/175 59/98/173 14/32/174 18/38/76
f 88/100/176 60/99/175 18/38/76 87/58/75
s 2
f 61/120/6 49/121/149 50/86/152 62/7/7
s 5
f 51/87/153 63/40/50 82/48/60 83/88/154
f 52/89/156 64/34/42 63/40/50 51/87/153
f 53/90/157 65/28/36 64/34/42 52/89/156
f 54/119/158 66/118/33 65/28/36 53/90/157
s 3
f 67/11/11 66/10/10 54/91/160 55/92/159
s 4
f 68/2/15 67/11/14 55/92/164 56/94/163
s 1
f 69/116/3 68/2/2 56/94/168 57/117/167
s 5
f 70/21/27 69/3/26 57/96/172 58/97/171
f 71/29/37 70/21/27 58/97/171 59/98/173
f 72/35/45 71/29/37 59/98/173 60/99/175
f 89/41/53 72/35/45 60/99/175 88/100/176
s 4
f 2/95/166 8/93/165 73/14/177 74/13/178
s 3
f 8/93/162 6/115/161 75/112/179 73/14/180
s 5
f 6/24/30 4/146/29 76/111/181 75/15/182
s 1
f 4/23/170 2/95/169 74/13/183 76/16/184
s 4
f 7/12/13 1/1/16 78/18/185 77/17/186
s 1
f 1/1/1 3/110/4 79/108/187 78/18/188
s 5
f 3/4/25 5/149/34 80/107/189 79/19/190
s 3
f 5/9/9 7/12/12 77/17/191 80/20/192
s 5
f 82/48/60 81/47/59 24/8/193 62/7/194
f 83/88/154 82/48/60 62/7/194 50/86/195
f 84/138/68 83/88/154 50/86/195 23/139/196
f 85/45/69 84/53/68 23/54/196 27/57/197
s 7
f 86/46/58 85/45/57 27/57/198 28/56/199
s 5
f 22/142/200 87/136/75 86/46/78 28/56/201
f 49/85/202 88/100/176 87/58/75 22/55/200
f 61/6/203 89/41/53 88/100/176 49/85/202
f 90/42/54 89/41/53 61/6/203 21/5/204
s 11
f 91/105/83 90/42/82 21/5/205 31/106/206
s 13
f 92/67/99 91/61/98 31/63/207 35/69/208
s 15
f 93/73/115 92/67/114 35/69/209 39/75/210
s 18
f 94/79/131 93/73/130 39/75/211 45/81/212
f 95/104/141 94/79/131 45/81/212 43/84/213
s 8
f 96/103/64 95/51/63 43/84/214 44/83/215
s 20
f 48/80/216 97/82/140 96/52/146 44/83/217
f 40/74/218 98/76/137 97/82/140 48/80/216
s 16
f 36/68/219 99/70/121 98/76/124 40/74/220
s 14
f 32/102/221 100/101/105 99/70/108 36/68/222
s 12
f 24/8/223 81/47/90 100/64/89 32/62/224
