# This file uses meters as units for non-parametric coordinates.

g default
v -22.368419 9.702212 22.368419
v 0.000000 4.545533 28.045147
v 21.432383 9.702212 20.309222
v -26.512348 33.238321 23.832302
v 0.897134 33.238321 33.843893
v 25.811677 33.238321 24.547137
v -20.804186 55.166434 20.279395
v 0.506401 61.178340 24.491190
v 19.942115 55.711867 18.677575
v -27.006391 61.178340 0.000000
v 27.006391 61.178340 0.000000
v -21.539922 55.711867 -21.539922
v 0.000000 61.178340 -27.006391
v 21.539922 55.711867 -21.539922
v -27.409484 33.238321 -27.409484
v 0.000000 33.238321 -37.421073
v 27.409484 33.238321 -27.409484
v -22.368419 9.702212 -22.368419
v 0.000000 4.545533 -28.045147
v 22.368419 9.702212 -22.368419
v -28.045147 5.445959 0.000000
v 0.000000 2.232697 0.000000
v 28.045147 5.445959 0.000000
v 37.421073 33.238321 0.000000
v -37.421073 33.238321 0.000000
v 0.897134 16.022620 32.143425
v -14.048256 33.238321 31.333796
v 12.412371 6.472008 24.181188
v 24.642578 17.611023 23.378039
v 14.515757 33.238321 30.336579
v -24.195929 46.629216 21.515877
v 0.506401 48.487826 31.643576
v -11.956864 59.440424 21.691289
v 23.495256 46.629216 22.230714
v 11.538587 59.259194 22.585048
v -25.268475 59.440424 12.853998
v -0.007821 65.032400 15.083436
v -15.291993 65.921829 0.000000
v 24.332439 59.440424 10.794801
v 15.291993 65.921829 0.000000
v -25.268475 59.440424 -12.853998
v 0.000000 65.921829 -15.291993
v -12.853998 59.440424 -25.268475
v 25.268475 59.440424 -12.853998
v 12.853998 59.440424 -25.268475
v -25.093063 46.629216 -25.093063
v 0.000000 48.487826 -34.158780
v -14.945390 33.238321 -34.910974
v 25.093063 46.629216 -25.093063
v 14.945390 33.238321 -34.910974
v -26.240385 17.611023 -26.240385
v 0.000000 16.022620 -35.720607
v -13.348406 6.472008 -26.240385
v 26.240385 17.611023 -26.240385
v 13.348406 6.472008 -26.240385
v -26.240385 6.799122 -13.348406
v 0.000000 -0.000005 -15.291993
v -15.291993 -0.000005 0.000000
v 26.240385 6.799122 -13.348406
v 15.291993 -0.000005 0.000000
v -26.240385 6.799122 13.348406
v 0.000000 -0.000005 15.291993
v 25.304351 6.799122 11.289209
v 35.720607 16.022620 0.000000
v 34.910974 33.238321 -14.945390
v 33.974944 33.238321 12.886193
v 34.158780 48.487826 0.000000
v -35.720607 16.022620 0.000000
v -34.910974 33.238321 -14.945390
v -34.910974 33.238321 14.945390
v -34.158780 48.487826 0.000000
v -13.348406 6.472008 26.240385
v -25.343249 17.611023 22.663201
v -13.423065 16.816822 29.783356
v 13.890566 16.816822 28.786139
v -12.796937 47.558519 28.324713
v 13.264436 47.558519 27.327500
v -15.530310 63.817889 10.505295
v 13.384163 65.218993 12.261002
v -14.320200 65.218993 -14.320200
v 14.320200 65.218993 -14.320200
v -13.694070 47.558519 -31.901899
v 13.694070 47.558519 -31.901899
v -14.320200 16.816822 -33.360540
v 14.320200 16.816822 -33.360540
v -14.320200 0.357667 -14.320200
v 14.320200 0.357667 -14.320200
v -14.320200 0.357667 14.320200
v 13.384163 0.357667 12.261002
v 33.360540 16.816822 -14.320200
v 32.424505 16.816822 12.261002
v 31.901899 47.558519 -13.694070
v 30.965863 47.558519 11.634873
v -33.360540 16.816822 -14.320200
v -33.360540 16.816822 14.320200
v -31.901899 47.558519 -13.694070
v -31.901899 47.558519 13.694070
v -0.000001 63.003122 7.449223
v -5.634893 63.115483 5.634893
v -7.449225 63.003130 0.000001
v 5.634893 63.115487 5.634894
v 7.449225 63.003130 0.000000
v 0.000001 63.003122 -7.449223
v -5.634893 63.115487 -5.634893
v 5.634894 63.115487 -5.634893
v -0.000003 70.509606 5.956223
v -4.568601 70.595541 4.568606
v -5.956219 70.509614 0.000002
v 4.568595 70.595549 4.568604
v 5.956216 70.509614 0.000000
v 0.000000 70.509606 -5.956221
v -4.568596 70.595549 -4.568601
v 4.568596 70.595549 -4.568602
v -2.734827 76.995819 6.998660
v -5.296389 76.161401 6.001964
v -6.002396 76.427947 3.230357
v -0.211375 78.265955 6.478862
v 0.532741 79.132650 3.843260
v -2.734824 78.564777 0.074956
v -5.296386 77.382229 0.614598
v -0.211375 79.486767 1.091503
v -8.236871 84.055691 1.835608
v -8.942666 83.442342 0.886659
v -7.923215 84.874684 0.436064
v -8.826586 83.772518 -0.398789
v -7.381653 85.023684 2.161872
v -6.820408 85.804832 1.240084
v -7.410123 85.521660 -0.994314
v -8.299371 84.583012 -1.315313
v -6.738361 86.164370 -0.040103
vt 0.384462 0.195562
vt 0.425434 0.176082
vt 0.438042 0.237972
vt 0.380333 0.241837
vt 0.497536 0.163411
vt 0.503440 0.234093
vt 0.504998 0.333986
vt 0.442526 0.332799
vt 0.384446 0.331352
vt 0.570510 0.173091
vt 0.563781 0.237901
vt 0.613997 0.194117
vt 0.613485 0.243040
vt 0.613403 0.330959
vt 0.562714 0.333145
vt 0.444537 0.417288
vt 0.387885 0.409984
vt 0.505090 0.423033
vt 0.508160 0.506793
vt 0.436388 0.495932
vt 0.396231 0.461567
vt 0.564137 0.418762
vt 0.613290 0.408783
vt 0.611829 0.467839
vt 0.566991 0.493183
vt 0.381762 0.549702
vt 0.356387 0.487857
vt 0.501806 0.562636
vt 0.469663 0.904894
vt 0.483128 0.907259
vt 0.482309 0.924248
vt 0.463009 0.919875
vt 0.306955 0.570782
vt 0.292490 0.499644
vt 0.611555 0.546369
vt 0.655782 0.486927
vt 0.712776 0.491055
vt 0.698550 0.560081
vt 0.496956 0.910509
vt 0.504827 0.920031
vt 0.201845 0.549303
vt 0.222422 0.488647
vt 0.479553 0.942742
vt 0.454279 0.919909
vt 0.135586 0.594791
vt 0.063685 0.517555
vt 0.129839 0.492536
vt 0.169918 0.463851
vt 0.508587 0.932602
vt 0.782101 0.475063
vt 0.805035 0.538332
vt 0.833257 0.446898
vt 0.093022 0.407874
vt 0.157587 0.401015
vt 0.017718 0.419345
vt 0.000446 0.309037
vt 0.083198 0.313401
vt 0.151807 0.318148
vt 0.843776 0.386206
vt 0.846571 0.303996
vt 0.095948 0.207809
vt 0.158535 0.224463
vt 0.020141 0.185491
vt 0.075137 0.088263
vt 0.133971 0.132764
vt 0.170504 0.169573
vt 0.836407 0.209399
vt 0.822328 0.151492
vt 0.208158 0.079985
vt 0.220052 0.153777
vt 0.175209 0.010715
vt 0.636947 0.007761
vt 0.299435 0.068408
vt 0.284150 0.148107
vt 0.773785 0.140225
vt 0.711293 0.147143
vt 0.693124 0.072959
vt 0.375373 0.111891
vt 0.341971 0.169727
vt 0.548078 0.088750
vt 0.620893 0.109216
vt 0.657881 0.166513
vt 0.777929 0.214062
vt 0.719208 0.220427
vt 0.784569 0.311206
vt 0.722975 0.319030
vt 0.668538 0.232108
vt 0.669843 0.325317
vt 0.782648 0.397141
vt 0.720652 0.408088
vt 0.668245 0.408734
vt 0.218029 0.225003
vt 0.276973 0.225367
vt 0.275847 0.326154
vt 0.214291 0.322030
vt 0.333779 0.237860
vt 0.336152 0.330383
vt 0.218955 0.408515
vt 0.280962 0.416326
vt 0.341060 0.412316
vt 0.491677 0.647932
vt 0.423172 0.647515
vt 0.355238 0.658036
vt 0.558292 0.656404
vt 0.621908 0.676080
vt 0.289962 0.674928
vt 0.230185 0.696793
vt 0.687489 0.698723
vt 0.490893 0.730780
vt 0.430046 0.729380
vt 0.369182 0.739596
vt 0.547497 0.737981
vt 0.600343 0.757604
vt 0.311380 0.754910
vt 0.265249 0.784960
vt 0.653224 0.783187
vt 0.513847 0.825162
vt 0.484317 0.833822
vt 0.446265 0.852929
vt 0.540522 0.839234
vt 0.559410 0.859042
vt 0.419644 0.880641
vt 0.407983 0.915055
vt 0.573690 0.887010
vt 0.938857 0.502920
vt 0.873066 0.477245
vt 0.983148 0.402268
vt 0.907797 0.391495
vt 0.996739 0.291394
vt 0.914504 0.297266
vt 0.972840 0.170349
vt 0.898424 0.191867
vt 0.915703 0.077925
vt 0.858674 0.116729
vt 0.810088 0.003246
vt 0.781225 0.063453
vt 0.867755 0.577715
vt 0.810018 0.614883
vt 0.710448 0.805299
vt 0.577040 0.924782
vt 0.758624 0.601887
vt 0.199713 0.635585
vt 0.742713 0.732912
vt 0.686784 0.605255
vt 0.325985 0.614140
vt 0.243818 0.618133
vt 0.592283 0.600246
vt 0.508066 0.605792
vt 0.412398 0.605097
vt 0.494991 0.939941
vt 0.458689 0.939389
vt 0.510245 0.946729
vt 0.501144 0.925481
vt 0.461263 0.908715
vt 0.465012 0.935698
vt 0.343465 0.005763
vt 0.445676 0.089109
vn -0.556573 -0.535556 0.635143
vn -0.285140 -0.657292 0.697612
vn -0.321363 -0.172123 0.931182
vn -0.620099 -0.186909 0.761934
vn 0.038101 -0.702840 0.710327
vn 0.047953 -0.206116 0.977352
vn 0.037199 0.032005 0.998795
vn -0.350038 0.039061 0.935921
vn -0.614819 0.049725 0.787099
vn 0.331347 -0.690099 0.643407
vn 0.353974 -0.217794 0.909543
vn 0.549360 -0.608530 0.572621
vn 0.652973 -0.232131 0.720931
vn 0.666653 0.050308 0.743668
vn 0.357355 0.041095 0.933064
vn -0.338390 0.308335 0.889057
vn -0.585140 0.287897 0.758107
vn 0.016314 0.318876 0.947656
vn -0.015659 0.696747 0.717146
vn -0.290125 0.689956 0.663166
vn -0.487764 0.528377 0.694913
vn 0.362302 0.302395 0.881643
vn 0.632942 0.311106 0.708942
vn 0.564923 0.533467 0.629504
vn 0.326181 0.636224 0.699161
vn -0.235057 0.933676 0.270182
vn -0.645896 0.674686 0.357236
vn -0.041550 0.968835 0.244196
vn -0.899496 -0.076346 0.430207
vn -0.443991 0.344313 0.827237
vn -0.752129 0.648673 0.116299
vn -0.874279 -0.371598 -0.312332
vn -0.184306 0.982644 0.021007
vn -0.696867 0.717185 0.004715
vn 0.255610 0.922904 0.287942
vn 0.650517 0.665028 0.366830
vn 0.697384 0.716242 0.025560
vn 0.206814 0.978314 0.011380
vn 0.096856 0.666174 0.739480
vn 0.536204 0.808679 0.241917
vn -0.256278 0.932010 -0.256278
vn -0.671232 0.683322 -0.287262
vn 0.192506 0.114456 -0.974598
vn -0.295936 -0.234639 -0.925941
vn 0.000000 0.979646 -0.200732
vn 0.000000 0.720600 -0.693351
vn -0.287262 0.683322 -0.671232
vn -0.586783 0.558006 -0.586783
vn 0.582417 0.598595 -0.549977
vn 0.671232 0.683322 -0.287262
vn 0.256278 0.932010 -0.256278
vn 0.586783 0.558006 -0.586783
vn 0.287262 0.683322 -0.671232
vn -0.321803 0.334281 -0.885832
vn -0.669965 0.319835 -0.669965
vn -0.000000 0.348272 -0.937394
vn 0.000000 0.046769 -0.998906
vn -0.341272 0.048514 -0.938712
vn -0.706203 0.050552 -0.706203
vn 0.321803 0.334281 -0.885832
vn 0.669965 0.319835 -0.669965
vn 0.706203 0.050552 -0.706203
vn 0.341272 0.048514 -0.938712
vn -0.326498 -0.283605 -0.901647
vn -0.683683 -0.256932 -0.683055
vn -0.000000 -0.306663 -0.951818
vn -0.000000 -0.770658 -0.637249
vn -0.274721 -0.736593 -0.618028
vn -0.547259 -0.639619 -0.539810
vn 0.326498 -0.283605 -0.901647
vn 0.683683 -0.256932 -0.683055
vn 0.547259 -0.639619 -0.539810
vn 0.274721 -0.736593 -0.618028
vn -0.205143 -0.960840 -0.186288
vn -0.620665 -0.739974 -0.259254
vn -0.000000 -0.986793 -0.161985
vn 0.000000 -1.000000 0.000000
vn -0.183203 -0.983075 0.000000
vn -0.639887 -0.768469 0.000000
vn 0.205143 -0.960840 -0.186288
vn 0.620665 -0.739974 -0.259254
vn 0.643510 -0.765085 0.023240
vn 0.184993 -0.982682 0.010609
vn -0.205143 -0.960840 0.186288
vn -0.624394 -0.731222 0.274674
vn 0.021237 -0.984534 0.173900
vn 0.207093 -0.960135 0.187759
vn 0.609429 -0.726699 0.317024
vn 0.901315 -0.287328 -0.324152
vn 0.949996 -0.310615 0.032032
vn 0.938712 0.048514 -0.341272
vn 0.998333 0.046822 0.033750
vn 0.870892 -0.276542 0.406290
vn 0.902571 0.048421 0.427810
vn 0.885833 0.334281 -0.321803
vn 0.936842 0.348166 0.033287
vn 0.849530 0.329387 0.412072
vn -0.901315 -0.287328 -0.324152
vn -0.950051 -0.312094 0.000000
vn -0.998906 0.046770 0.000000
vn -0.938712 0.048514 -0.341272
vn -0.884793 -0.274768 0.376355
vn -0.909975 0.048539 0.411813
vn -0.885833 0.334281 -0.321803
vn -0.937394 0.348272 0.000000
vn -0.864006 0.328278 0.381742
vn -0.030319 0.974453 -0.222535
vn 0.097220 0.991483 -0.086664
vn 0.258301 0.964749 0.050402
vn -0.182482 0.973101 -0.140620
vn -0.289771 0.957065 -0.007645
vn 0.151188 0.976875 0.151188
vn 0.000000 0.958463 0.285216
vn -0.151188 0.976875 0.151187
vn -0.692267 0.203796 0.692267
vn 0.000000 0.189345 0.981911
vn 0.034106 0.062976 0.997432
vn -0.712516 0.036771 0.700692
vn -0.981910 0.189346 -0.000000
vn -0.990796 0.130193 -0.037053
vn 0.692267 0.203796 0.692267
vn 0.727378 0.254919 0.637132
vn 0.981910 0.189346 0.000000
vn 0.934864 0.354744 -0.013657
vn -0.000000 0.189345 -0.981911
vn -0.692267 0.203796 -0.692267
vn -0.634287 0.309380 -0.708495
vn 0.001709 0.381346 -0.924431
vn 0.692267 0.203796 -0.692267
vn 0.637214 0.417440 -0.647845
vn -0.137570 0.043044 0.989556
vn -0.683067 -0.131983 0.718331
vn -0.983658 -0.179126 -0.018174
vn 0.493142 0.385435 0.779904
vn 0.778906 0.607944 0.153981
vn -0.644608 0.143131 -0.750995
vn 0.068880 0.450027 -0.890355
vn 0.607280 0.646676 -0.461542
s 1
g pCube1
f 1/1/1 72/2/2 74/3/3 73/4/4
f 72/2/2 2/5/5 26/6/6 74/3/3
f 74/3/3 26/6/6 5/7/7 27/8/8
f 73/4/4 74/3/3 27/8/8 4/9/9
f 2/5/5 28/10/10 75/11/11 26/6/6
f 28/10/10 3/12/12 29/13/13 75/11/11
f 75/11/11 29/13/13 6/14/14 30/15/15
f 26/6/6 75/11/11 30/15/15 5/7/7
f 4/9/9 27/8/8 76/16/16 31/17/17
f 27/8/8 5/7/7 32/18/18 76/16/16
f 76/16/16 32/18/18 8/19/19 33/20/20
f 31/17/17 76/16/16 33/20/20 7/21/21
f 5/7/7 30/15/15 77/22/22 32/18/18
f 30/15/15 6/14/14 34/23/23 77/22/22
f 77/22/22 34/23/23 9/24/24 35/25/25
f 32/18/18 77/22/22 35/25/25 8/19/19
f 7/21/21 33/20/20 78/26/26 36/27/27
f 33/20/20 8/19/19 37/28/28 78/26/26
s 2
f 123/29/29 122/30/30 124/31/31 125/32/32
s 1
f 36/27/27 78/26/26 38/33/33 10/34/34
f 8/19/19 35/25/25 79/35/35 37/28/28
f 35/25/25 9/24/24 39/36/36 79/35/35
f 79/35/35 39/36/36 11/37/37 40/38/38
s 2
f 122/30/30 126/39/39 127/153/40 124/31/31
s 1
f 10/34/34 38/33/33 80/41/41 41/42/42
s 2
f 125/32/32 124/31/31 128/43/43 129/155/44
s 1
f 80/41/41 42/45/45 13/46/46 43/47/47
f 41/42/42 80/41/41 43/47/47 12/48/48
s 2
f 124/31/31 127/153/40 130/150/49 128/43/43
s 1
f 40/38/38 11/37/37 44/50/50 81/51/51
f 81/51/51 44/50/50 14/52/52 45/126/53
f 42/137/45 81/51/51 45/126/53 13/125/46
f 12/48/48 43/47/47 82/53/54 46/54/55
f 43/47/47 13/46/46 47/55/56 82/53/54
f 82/53/54 47/55/56 16/56/57 48/57/58
f 46/54/55 82/53/54 48/57/58 15/58/59
f 13/125/46 45/126/53 83/128/60 47/127/56
f 45/126/53 14/52/52 49/59/61 83/128/60
f 83/128/60 49/59/61 17/60/62 50/130/63
f 47/127/56 83/128/60 50/130/63 16/129/57
f 15/58/59 48/57/58 84/61/64 51/62/65
f 48/57/58 16/56/57 52/63/66 84/61/64
f 84/61/64 52/63/66 19/64/67 53/65/68
f 51/62/65 84/61/64 53/65/68 18/66/69
f 16/129/57 50/130/63 85/132/70 52/131/66
f 50/130/63 17/60/62 54/67/71 85/132/70
f 85/132/70 54/67/71 20/68/72 55/134/73
f 52/131/66 85/132/70 55/134/73 19/133/67
f 18/66/69 53/65/68 86/69/74 56/70/75
f 53/65/68 19/64/67 57/71/76 86/69/74
f 86/69/74 57/71/76 22/156/77 58/73/78
f 56/70/75 86/69/74 58/73/78 21/74/79
f 19/133/67 55/134/73 87/136/80 57/135/76
f 55/134/73 20/68/72 59/75/81 87/136/80
f 87/136/80 59/75/81 23/76/82 60/77/83
f 57/135/76 87/136/80 60/77/83 22/72/77
f 21/74/79 58/73/78 88/78/84 61/79/85
f 58/73/78 22/156/77 62/157/86 88/78/84
f 88/78/84 62/157/86 2/5/5 72/2/2
f 61/79/85 88/78/84 72/2/2 1/1/1
f 22/72/77 60/77/83 89/81/87 62/80/86
f 60/77/83 23/76/82 63/82/88 89/81/87
f 89/81/87 63/82/88 3/12/12 28/10/10
f 62/80/86 89/81/87 28/10/10 2/5/5
f 23/76/82 59/75/81 90/83/89 64/84/90
f 59/75/81 20/68/72 54/67/71 90/83/89
f 90/83/89 54/67/71 17/60/62 65/85/91
f 64/84/90 90/83/89 65/85/91 24/86/92
f 3/12/12 63/82/88 91/87/93 29/13/13
f 63/82/88 23/76/82 64/84/90 91/87/93
f 91/87/93 64/84/90 24/86/92 66/88/94
f 29/13/13 91/87/93 66/88/94 6/14/14
f 24/86/92 65/85/91 92/89/95 67/90/96
f 65/85/91 17/60/62 49/59/61 92/89/95
f 92/89/95 49/59/61 14/52/52 44/50/50
f 67/90/96 92/89/95 44/50/50 11/37/37
f 6/14/14 66/88/94 93/91/97 34/23/23
f 66/88/94 24/86/92 67/90/96 93/91/97
f 93/91/97 67/90/96 11/37/37 39/36/36
f 34/23/23 93/91/97 39/36/36 9/24/24
f 18/66/69 56/70/75 94/92/98 51/62/65
f 56/70/75 21/74/79 68/93/99 94/92/98
f 94/92/98 68/93/99 25/94/100 69/95/101
f 51/62/65 94/92/98 69/95/101 15/58/59
f 21/74/79 61/79/85 95/96/102 68/93/99
f 61/79/85 1/1/1 73/4/4 95/96/102
f 95/96/102 73/4/4 4/9/9 70/97/103
f 68/93/99 95/96/102 70/97/103 25/94/100
f 15/58/59 69/95/101 96/98/104 46/54/55
f 69/95/101 25/94/100 71/99/105 96/98/104
f 96/98/104 71/99/105 10/34/34 41/42/42
f 46/54/55 96/98/104 41/42/42 12/48/48
f 25/94/100 70/97/103 97/100/106 71/99/105
f 70/97/103 4/9/9 31/17/17 97/100/106
f 97/100/106 31/17/17 7/21/21 36/27/27
f 71/99/105 97/100/106 36/27/27 10/34/34
f 78/26/26 37/28/28 98/148/107 99/149/108
f 38/33/33 78/26/26 99/149/108 100/145/109
f 37/28/28 79/35/35 101/147/110 98/148/107
f 79/35/35 40/38/38 102/144/111 101/147/110
f 42/45/45 80/41/41 104/146/112 103/142/113
f 80/41/41 38/33/33 100/145/109 104/146/112
f 40/38/38 81/51/51 105/141/114 102/144/111
f 81/51/51 42/137/45 103/138/113 105/141/114
s 2
f 99/102/115 98/101/116 106/109/117 107/110/118
f 100/103/119 99/102/115 107/110/118 108/111/120
f 98/101/116 101/104/121 109/112/122 106/109/117
f 101/104/121 102/105/123 110/113/124 109/112/122
f 103/107/125 104/106/126 112/114/127 111/115/128
f 104/106/126 100/103/119 108/111/120 112/114/127
f 102/105/123 105/108/129 113/116/130 110/113/124
f 105/108/129 103/143/125 111/139/128 113/116/130
f 107/110/118 106/109/117 114/117/131 115/118/132
f 108/111/120 107/110/118 115/118/132 116/119/133
f 106/109/117 109/112/122 117/120/134 114/117/131
f 109/112/122 110/113/124 118/121/135 117/120/134
f 111/115/128 112/114/127 120/122/136 119/123/137
f 112/114/127 108/111/120 116/119/133 120/122/136
f 110/113/124 113/116/130 121/124/138 118/121/135
f 113/116/130 111/139/128 119/140/137 121/124/138
f 115/118/132 114/117/131 122/30/30 123/29/29
f 116/119/133 115/118/132 123/29/29 125/154/32
f 114/117/131 117/120/134 126/39/39 122/30/30
f 117/120/134 118/121/135 127/40/40 126/39/39
f 119/123/137 120/122/136 129/44/44 128/151/43
f 120/122/136 116/119/133 125/154/32 129/44/44
f 118/121/135 121/124/138 130/49/49 127/40/40
f 121/124/138 119/140/137 128/152/43 130/49/49
