# This file uses meters as units for non-parametric coordinates.

g default
v -16.079521 50.162743 -49.744263
v -16.079517 18.570068 -68.161133
v -16.079517 -17.998390 -68.314339
v -16.079517 -49.744209 -50.162754
v -16.079521 -68.161125 -18.570105
v -16.079521 -68.314308 17.998407
v -16.079521 -50.162697 49.744247
v -16.079517 -18.570061 68.161133
v -16.079517 17.998421 68.314331
v -16.079517 49.744232 50.162704
v -16.079521 68.161163 18.570093
v -16.079521 68.314331 -17.998411
v 19.907682 18.570068 -68.161133
v 19.907684 50.162743 -49.744263
v 19.907681 -17.998384 -68.314339
v 19.907681 -49.744217 -50.162754
v 19.907684 -68.161125 -18.570105
v 19.907684 -68.314316 17.998407
v 19.907684 -50.162697 49.744247
v 19.907681 -18.570063 68.161133
v 19.907681 17.998425 68.314331
v 19.907682 49.744228 50.162704
v 19.907684 68.161163 18.570093
v 19.907684 68.314323 -17.998411
v 19.907681 5.680246 -20.849564
v 19.907681 15.344114 -15.216017
v 19.907681 -5.505423 -20.896263
v 19.907681 -15.216005 -15.344095
v 19.907681 -20.849562 -5.680262
v 19.907681 -20.896288 5.505434
v 19.907681 -15.344126 15.216063
v 19.907681 -5.680265 20.849546
v 19.907681 5.505426 20.896263
v 19.907681 15.216007 15.344117
v 19.907681 20.849546 5.680266
v 19.907681 20.896252 -5.505424
v -6.290482 56.276546 -55.807053
v -6.290478 20.833374 -76.468582
v 10.118645 56.276546 -55.807053
v 10.118645 20.833378 -76.468582
v -6.290478 -20.192017 -76.640442
v 10.118643 -20.192017 -76.640442
v -6.290478 -55.807014 -56.276505
v 10.118641 -55.807007 -56.276505
v -6.290482 -76.468559 -20.833412
v 10.118645 -76.468559 -20.833412
v -6.290482 -76.640404 20.192017
v 10.118645 -76.640404 20.192017
v -6.290482 -56.276512 55.807022
v 10.118645 -56.276512 55.807022
v -6.290478 -20.833374 76.468559
v 10.118641 -20.833374 76.468559
v -6.290478 20.192070 76.640427
v 10.118643 20.192066 76.640427
v -6.290478 55.807030 56.276543
v 10.118641 55.807030 56.276543
v -6.290482 76.468582 20.833405
v 10.118645 76.468582 20.833405
v -6.290482 76.640396 -20.192059
v 10.118645 76.640396 -20.192059
v -19.907684 39.586838 -39.256565
v -19.907681 14.654869 -53.790627
v -19.907681 -14.203766 -53.911522
v -19.907682 -39.256592 -39.586864
v -19.907681 -53.790649 -14.654921
v -19.907681 -53.911514 14.203758
v -19.907681 -39.586868 39.256573
v -19.907682 -14.654907 53.790638
v -19.907681 14.203812 53.911552
v -19.907681 39.256554 39.586853
v -19.907684 53.790627 14.654949
v -19.907684 53.911484 -14.203771
v -8.883911 39.586838 -39.256565
v -8.883911 14.654869 -53.790627
v -8.883912 -14.203766 -53.911522
v -8.883911 -39.256592 -39.586864
v -8.883911 -53.790649 -14.654921
v -8.883911 -53.911522 14.203758
v -8.883904 -39.586861 39.256573
v -8.883909 -14.654907 53.790638
v -8.883904 14.203812 53.911552
v -8.883911 39.256554 39.586853
v -8.883911 53.790623 14.654949
v -8.883911 53.911484 -14.203771
v -8.883904 11.268845 -11.174840
v -8.883903 4.171669 -15.312107
v -8.883904 -4.043243 -15.346499
v -8.883904 -11.174843 -11.268866
v -8.883901 -15.312111 -4.171699
v -8.883904 -15.346512 4.043308
v -8.883904 -11.268799 11.174828
v -8.883900 -4.171646 15.312100
v -8.883904 4.043274 15.346558
v -8.883901 11.174828 11.268891
v -8.883904 15.312119 4.171718
v -8.883898 15.346497 -4.043305
v -14.654121 11.268845 -11.174840
v -14.654122 4.171669 -15.312107
v -17.810108 0.000015 -0.000006
v -14.654122 -4.043243 -15.346499
v -14.654122 -11.174835 -11.268866
v -14.654118 -15.312103 -4.171699
v -14.654123 -15.346512 4.043308
v -14.654123 -11.268799 11.174828
v -14.654117 -4.171646 15.312100
v -14.654122 4.043274 15.346558
v -14.654117 11.174828 11.268891
v -14.654121 15.312119 4.171718
v -14.654114 15.346497 -4.043305
v 19.907681 -0.000010 -0.000000
vt 0.760043 0.647337
vt 0.852881 0.216645
vt 0.837147 0.216027
vt 0.846167 0.186976
vt 0.823829 0.207625
vt 0.816497 0.193690
vt 0.817116 0.177956
vt 0.825518 0.164639
vt 0.839453 0.157307
vt 0.855187 0.157924
vt 0.868504 0.166327
vt 0.875836 0.180262
vt 0.875218 0.195996
vt 0.866816 0.209313
vt 0.896449 0.579376
vt 0.908034 0.627519
vt 0.863936 0.633914
vt 0.853725 0.591304
vt 0.877959 0.532722
vt 0.837074 0.549395
vt 0.853340 0.487489
vt 0.813773 0.508066
vt 0.824292 0.442308
vt 0.783515 0.466694
vt 0.781339 0.955308
vt 0.735958 0.917390
vt 0.817893 0.909295
vt 0.778831 0.881653
vt 0.851308 0.866214
vt 0.812494 0.843841
vt 0.878218 0.821574
vt 0.837585 0.804087
vt 0.897496 0.774646
vt 0.854804 0.762668
vt 0.908835 0.726031
vt 0.864694 0.720104
vt 0.912276 0.676674
vt 0.867646 0.676995
vt 0.825304 0.600065
vt 0.834292 0.638428
vt 0.810503 0.562101
vt 0.789360 0.524645
vt 0.760672 0.488152
vt 0.715388 0.882935
vt 0.757892 0.858101
vt 0.788971 0.825754
vt 0.811356 0.790429
vt 0.826449 0.753469
vt 0.835034 0.715501
vt 0.837564 0.677013
vt 0.924180 0.572474
vt 0.936383 0.623819
vt 0.905061 0.523366
vt 0.880550 0.476730
vt 0.853691 0.431520
vt 0.817450 0.969084
vt 0.846483 0.922568
vt 0.877926 0.878467
vt 0.904980 0.831682
vt 0.925067 0.781778
vt 0.937124 0.729656
vt 0.940849 0.676583
vt 0.946118 0.567699
vt 0.958625 0.621434
vt 0.926794 0.516841
vt 0.902798 0.469446
vt 0.878093 0.425148
vt 0.847894 0.972870
vt 0.870628 0.931517
vt 0.899495 0.887578
vt 0.926143 0.839514
vt 0.946636 0.787511
vt 0.959189 0.732799
vt 0.963169 0.676928
vt 0.804757 0.328418
vt 0.881026 0.330173
vt 0.739585 0.288764
vt 0.702969 0.221835
vt 0.704724 0.145566
vt 0.744378 0.080393
vt 0.811307 0.043779
vt 0.887576 0.045534
vt 0.952749 0.085188
vt 0.989364 0.152116
vt 0.987609 0.228385
vt 0.947954 0.293559
vt 0.833135 0.233101
vt 0.857944 0.233437
vt 0.811818 0.220406
vt 0.799705 0.198753
vt 0.800042 0.173945
vt 0.812737 0.152627
vt 0.834390 0.140515
vt 0.859199 0.140851
vt 0.880515 0.153546
vt 0.892629 0.175199
vt 0.892292 0.200008
vt 0.879597 0.221324
vt 0.993651 0.676308
vt 0.988793 0.616970
vt 0.989499 0.736162
vt 0.976339 0.794655
vt 0.955086 0.849837
vt 0.928108 0.899965
vt 0.900046 0.944328
vt 0.878157 0.985327
vt 0.891378 0.372731
vt 0.908299 0.414494
vt 0.860510 0.382797
vt 0.931612 0.458120
vt 0.955638 0.506569
vt 0.975620 0.559879
vt 0.832025 0.383769
vt 0.796084 0.392976
vt 0.746487 0.423468
vt 0.721156 0.455372
vt 0.762686 0.672997
vt 0.762075 0.698701
vt 0.758151 0.723748
vt 0.750940 0.747336
vt 0.740484 0.768322
vt 0.726858 0.784611
vt 0.705543 0.552249
vt 0.710928 0.792214
vt 0.721427 0.561465
vt 0.734778 0.578168
vt 0.745790 0.599029
vt 0.754316 0.622421
vt 0.993392 0.373698
vt 0.981939 0.395186
vt 0.947627 0.363100
vt 0.992554 0.349365
vt 0.979657 0.328724
vt 0.958175 0.317307
vt 0.933876 0.318157
vt 0.913262 0.331031
vt 0.901839 0.352477
vt 0.902656 0.376764
vt 0.915502 0.397401
vt 0.936955 0.408860
vt 0.961275 0.408055
vn -0.980795 0.138493 -0.137337
vn -0.980795 0.051269 -0.188184
vn -1.000000 0.000000 -0.000000
vn -0.980795 -0.049691 -0.188607
vn -0.980795 -0.137337 -0.138493
vn -0.980795 -0.188184 -0.051269
vn -0.980795 -0.188607 0.049691
vn -0.980795 -0.138492 0.137338
vn -0.980795 -0.051270 0.188184
vn -0.980795 0.049691 0.188607
vn -0.980795 0.137337 0.138493
vn -0.980795 0.188184 0.051269
vn -0.980795 0.188608 -0.049691
vn -0.282198 0.252179 -0.925619
vn -0.282198 0.681203 -0.675520
vn 0.282198 0.681203 -0.675520
vn 0.282198 0.252179 -0.925619
vn -0.282197 -0.244416 -0.927699
vn 0.282198 -0.244416 -0.927699
vn -0.282197 -0.675520 -0.681203
vn 0.282197 -0.675520 -0.681203
vn -0.282197 -0.925619 -0.252179
vn 0.282197 -0.925619 -0.252179
vn -0.282198 -0.927699 0.244416
vn 0.282197 -0.927699 0.244416
vn -0.282197 -0.681203 0.675520
vn 0.282197 -0.681203 0.675520
vn -0.282197 -0.252179 0.925619
vn 0.282197 -0.252179 0.925619
vn -0.282198 0.244416 0.927699
vn 0.282198 0.244416 0.927699
vn -0.282198 0.675520 0.681203
vn 0.282198 0.675520 0.681203
vn -0.282197 0.925619 0.252179
vn 0.282197 0.925619 0.252179
vn -0.282197 0.927699 -0.244416
vn 0.282197 0.927699 -0.244416
vn 1.000000 -0.000000 0.000000
vn 1.000000 -0.000000 0.000000
vn 1.000000 -0.000000 0.000000
vn 1.000000 -0.000000 0.000000
vn 1.000000 0.000000 0.000000
vn 1.000000 0.000000 0.000000
vn 1.000000 0.000000 0.000000
vn 1.000000 0.000000 0.000000
vn 1.000000 0.000000 0.000000
vn 1.000000 0.000000 0.000000
vn 1.000000 0.000000 0.000000
vn 1.000000 0.000000 0.000000
vn 1.000000 0.000000 -0.000000
vn 1.000000 0.000000 -0.000000
vn 1.000000 0.000000 -0.000000
vn 1.000000 0.000000 -0.000000
vn 1.000000 0.000000 0.000000
vn 1.000000 0.000000 0.000000
vn 1.000000 0.000000 0.000000
vn 1.000000 0.000000 0.000000
vn 1.000000 0.000000 -0.000000
vn 1.000000 0.000000 -0.000000
vn 1.000000 0.000000 -0.000000
vn 1.000000 0.000000 -0.000000
vn 1.000000 0.000000 0.000000
vn 1.000000 0.000000 0.000000
vn 1.000000 0.000000 0.000000
vn 1.000000 0.000000 0.000000
vn 1.000000 -0.000000 0.000000
vn 1.000000 -0.000000 0.000000
vn 1.000000 -0.000000 0.000000
vn 1.000000 -0.000000 0.000000
vn 1.000000 -0.000000 0.000000
vn 1.000000 -0.000000 0.000000
vn 1.000000 -0.000000 0.000000
vn 1.000000 -0.000000 0.000000
vn 1.000000 -0.000000 0.000000
vn 1.000000 -0.000000 0.000000
vn 1.000000 -0.000000 0.000000
vn 1.000000 -0.000000 0.000000
vn 1.000000 -0.000000 -0.000000
vn 1.000000 -0.000000 -0.000000
vn 1.000000 -0.000000 -0.000000
vn 1.000000 -0.000000 -0.000000
vn 1.000000 -0.000000 0.000000
vn 1.000000 -0.000000 0.000000
vn 1.000000 -0.000000 0.000000
vn 1.000000 -0.000000 0.000000
vn -0.828668 0.147135 -0.540057
vn -0.828668 0.397451 -0.394135
vn 0.660450 0.533165 -0.528717
vn 0.660450 0.197376 -0.724464
vn -0.828667 -0.142606 -0.541271
vn 0.660449 -0.191300 -0.726093
vn -0.828667 -0.394136 -0.397452
vn 0.660449 -0.528717 -0.533166
vn -0.828667 -0.540057 -0.147135
vn 0.660449 -0.724465 -0.197376
vn -0.828667 -0.541271 0.142606
vn 0.660449 -0.726093 0.191300
vn -0.828667 -0.397451 0.394136
vn 0.660449 -0.533165 0.528717
vn -0.828667 -0.147135 0.540057
vn 0.660449 -0.197376 0.724465
vn -0.828667 0.142606 0.541271
vn 0.660449 0.191300 0.726093
vn -0.828668 0.394136 0.397451
vn 0.660450 0.528717 0.533165
vn -0.828668 0.540057 0.147135
vn 0.660449 0.724465 0.197376
vn -0.828668 0.541271 -0.142606
vn 0.660449 0.726094 -0.191300
vn -0.968521 0.065435 -0.240177
vn -0.968521 0.176756 -0.175282
vn -0.968521 -0.063420 -0.240717
vn -0.968521 -0.175282 -0.176757
vn -0.968521 -0.240177 -0.065435
vn -0.968521 -0.240717 0.063420
vn -0.968521 -0.176757 0.175282
vn -0.968521 -0.065435 0.240177
vn -0.968521 0.063421 0.240717
vn -0.968521 0.175282 0.176757
vn -0.968521 0.240177 0.065435
vn -0.968521 0.240716 -0.063420
vn 0.000000 -0.710062 0.704139
vn 0.000000 -0.262864 0.964833
vn 0.000000 -0.262864 0.964833
vn 0.000000 -0.710062 0.704139
vn 0.000000 0.254771 0.967001
vn 0.000000 0.254771 0.967001
vn 0.000000 0.704139 0.710063
vn 0.000000 0.704139 0.710063
vn 0.000000 0.964833 0.262863
vn 0.000000 0.964833 0.262863
vn 0.000000 0.967001 -0.254771
vn 0.000000 0.967001 -0.254771
vn -0.000000 0.710063 -0.704139
vn -0.000000 0.710062 -0.704139
vn -0.000000 0.262864 -0.964833
vn -0.000000 0.262864 -0.964833
vn 0.000000 -0.254771 -0.967001
vn 0.000000 -0.254771 -0.967001
vn -0.000000 -0.704139 -0.710062
vn -0.000000 -0.704139 -0.710062
vn -0.000000 -0.964833 -0.262863
vn -0.000000 -0.964833 -0.262863
vn -0.000000 -0.967001 0.254771
vn -0.000000 -0.967001 0.254771
vn -1.000000 -0.000000 0.000000
vn -1.000000 -0.000000 0.000000
vn -1.000000 -0.000000 0.000000
vn -1.000000 -0.000000 0.000000
vn -1.000000 0.000000 0.000000
vn -1.000000 0.000000 0.000000
vn -1.000000 0.000000 0.000000
vn -1.000000 0.000000 0.000000
vn -1.000000 0.000000 0.000000
vn -1.000000 0.000000 0.000000
vn -1.000000 0.000000 0.000000
vn -1.000000 0.000000 0.000000
vn -1.000000 0.000000 -0.000000
vn -1.000000 0.000000 -0.000000
vn -1.000000 0.000000 -0.000000
vn -1.000000 0.000000 -0.000000
vn -1.000000 -0.000000 -0.000000
vn -1.000000 -0.000000 -0.000000
vn -1.000000 -0.000000 -0.000000
vn -1.000000 -0.000000 -0.000000
vn -1.000000 -0.000000 -0.000000
vn -1.000000 -0.000000 -0.000000
vn -1.000000 -0.000000 0.000000
vn -1.000000 -0.000000 0.000000
vn 0.000000 0.710061 -0.704140
vn 0.000000 0.262861 -0.964834
vn 0.000000 0.262861 -0.964834
vn 0.000000 0.710061 -0.704140
vn -0.000000 -0.254769 -0.967002
vn -0.000000 -0.254769 -0.967002
vn -0.000001 -0.704137 -0.710064
vn -0.000001 -0.704137 -0.710064
vn -0.000001 -0.964834 -0.262861
vn -0.000001 -0.964834 -0.262861
vn -0.000000 -0.967001 0.254773
vn -0.000000 -0.967001 0.254773
vn 0.000000 -0.710060 0.704141
vn 0.000000 -0.710060 0.704141
vn 0.000000 -0.262866 0.964832
vn 0.000000 -0.262866 0.964832
vn 0.000000 0.254768 0.967002
vn 0.000000 0.254768 0.967002
vn 0.000000 0.704139 0.710062
vn 0.000000 0.704139 0.710062
vn 0.000000 0.964834 0.262860
vn 0.000000 0.964834 0.262860
vn 0.000000 0.967002 -0.254771
vn 0.000000 0.967002 -0.254771
vn 1.000000 0.000000 0.000000
vn 1.000000 0.000000 0.000000
vn 1.000000 0.000000 0.000000
vn 1.000000 0.000000 0.000000
vn 1.000000 0.000000 0.000000
vn 1.000000 0.000000 0.000000
vn 1.000000 0.000000 0.000000
vn 1.000000 0.000000 0.000000
vn 1.000000 0.000000 0.000000
vn 1.000000 0.000000 0.000000
vn 1.000000 0.000000 0.000000
vn 1.000000 0.000000 0.000000
vn 1.000000 0.000000 0.000000
vn 1.000000 0.000000 0.000000
vn 1.000000 0.000000 0.000000
vn 1.000000 0.000000 0.000000
vn 1.000000 0.000000 0.000000
vn 1.000000 0.000000 0.000000
vn 1.000000 0.000000 0.000000
vn 1.000000 0.000000 0.000000
vn 1.000000 0.000000 0.000000
vn 1.000000 0.000000 0.000000
vn 1.000000 0.000000 0.000000
vn 1.000000 0.000000 0.000000
vn 1.000000 -0.000000 0.000000
vn 1.000000 -0.000000 0.000000
vn 1.000000 -0.000000 0.000000
vn 1.000000 0.000000 0.000000
vn 1.000000 0.000000 0.000000
vn 1.000000 0.000000 0.000000
vn 1.000000 0.000000 0.000000
vn 1.000000 0.000000 0.000000
vn 1.000000 0.000000 0.000000
vn 1.000000 0.000000 0.000000
vn 1.000000 0.000000 0.000000
vn 1.000000 0.000000 0.000000
s 1
g tractorWheelFront
f 97/2/1 98/3/2 99/4/3
f 98/3/2 100/5/4 99/4/3
f 100/5/4 101/6/5 99/4/3
f 101/6/5 102/7/6 99/4/3
f 102/7/6 103/8/7 99/4/3
f 103/8/7 104/9/8 99/4/3
f 104/9/8 105/10/9 99/4/3
f 105/10/9 106/11/10 99/4/3
f 106/11/10 107/12/11 99/4/3
f 107/12/11 108/13/12 99/4/3
f 108/13/12 109/14/13 99/4/3
f 109/14/13 97/2/1 99/4/3
s 2
f 38/15/14 37/16/15 39/17/16 40/18/17
f 41/19/18 38/15/14 40/18/17 42/20/19
f 43/21/20 41/19/18 42/20/19 44/22/21
f 45/23/22 43/21/20 44/22/21 46/24/23
f 47/114/24 45/23/22 46/24/23 48/115/25
f 49/27/26 47/25/24 48/26/25 50/28/27
f 51/29/28 49/27/26 50/28/27 52/30/29
f 53/31/30 51/29/28 52/30/29 54/32/31
f 55/33/32 53/31/30 54/32/31 56/34/33
f 57/35/34 55/33/32 56/34/33 58/36/35
f 59/37/36 57/35/34 58/36/35 60/38/37
f 37/16/15 59/37/36 60/38/37 39/17/16
s off
f 13/39/38 14/40/39 26/1/40 25/128/41
f 15/41/42 13/39/43 25/128/44 27/127/45
f 16/42/46 15/41/47 27/127/48 28/126/49
f 17/43/50 16/42/51 28/126/52 29/125/53
f 18/116/54 17/43/55 29/125/56 30/123/57
f 19/45/58 18/44/59 30/124/60 31/122/61
f 20/46/62 19/45/63 31/122/64 32/121/65
f 21/47/66 20/46/67 32/121/68 33/120/69
f 22/48/70 21/47/71 33/120/72 34/119/73
f 23/49/74 22/48/75 34/119/76 35/118/77
f 24/50/78 23/49/79 35/118/80 36/117/81
f 14/40/82 24/50/83 36/117/84 26/1/85
s 2
f 2/51/86 1/52/87 37/16/15 38/15/14
f 14/40/88 13/39/89 40/18/17 39/17/16
f 3/53/90 2/51/86 38/15/14 41/19/18
f 13/39/89 15/41/91 42/20/19 40/18/17
f 4/54/92 3/53/90 41/19/18 43/21/20
f 15/41/91 16/42/93 44/22/21 42/20/19
f 5/55/94 4/54/92 43/21/20 45/23/22
f 16/42/93 17/43/95 46/24/23 44/22/21
f 6/113/96 5/55/94 45/23/22 47/114/24
f 17/43/95 18/116/97 48/115/25 46/24/23
f 7/57/98 6/56/96 47/25/24 49/27/26
f 18/44/97 19/45/99 50/28/27 48/26/25
f 8/58/100 7/57/98 49/27/26 51/29/28
f 19/45/99 20/46/101 52/30/29 50/28/27
f 9/59/102 8/58/100 51/29/28 53/31/30
f 20/46/101 21/47/103 54/32/31 52/30/29
f 10/60/104 9/59/102 53/31/30 55/33/32
f 21/47/103 22/48/105 56/34/33 54/32/31
f 11/61/106 10/60/104 55/33/32 57/35/34
f 22/48/105 23/49/107 58/36/35 56/34/33
f 12/62/108 11/61/106 57/35/34 59/37/36
f 23/49/107 24/50/109 60/38/37 58/36/35
f 1/52/87 12/62/108 59/37/36 37/16/15
f 24/50/109 14/40/88 39/17/16 60/38/37
f 1/52/87 2/51/86 62/63/110 61/64/111
f 2/51/86 3/53/90 63/65/112 62/63/110
f 3/53/90 4/54/92 64/66/113 63/65/112
f 4/54/92 5/55/94 65/67/114 64/66/113
f 5/55/94 6/113/96 66/109/115 65/67/114
f 6/56/96 7/57/98 67/69/116 66/68/115
f 7/57/98 8/58/100 68/70/117 67/69/116
f 8/58/100 9/59/102 69/71/118 68/70/117
f 9/59/102 10/60/104 70/72/119 69/71/118
f 10/60/104 11/61/106 71/73/120 70/72/119
f 11/61/106 12/62/108 72/74/121 71/73/120
f 12/62/108 1/52/87 61/64/111 72/74/121
s 3
f 61/64/122 62/63/123 74/112/124 73/100/125
f 62/63/123 63/65/126 75/111/127 74/112/124
f 63/65/126 64/66/128 76/110/129 75/111/127
f 64/66/128 65/67/130 77/108/131 76/110/129
f 65/67/130 66/109/132 78/107/133 77/108/131
f 66/68/132 67/69/134 79/105/135 78/106/133
f 67/69/134 68/70/136 80/104/137 79/105/135
f 68/70/136 69/71/138 81/103/139 80/104/137
f 69/71/138 70/72/140 82/102/141 81/103/139
f 70/72/140 71/73/142 83/101/143 82/102/141
f 71/73/142 72/74/144 84/99/145 83/101/143
f 72/74/144 61/64/122 73/100/125 84/99/145
s 4
f 73/76/146 74/75/147 86/87/148 85/88/149
f 74/75/147 75/77/150 87/89/151 86/87/148
f 75/77/150 76/78/152 88/90/153 87/89/151
f 76/78/152 77/79/154 89/91/155 88/90/153
f 77/79/154 78/80/156 90/92/157 89/91/155
f 78/80/156 79/81/158 91/93/159 90/92/157
f 79/81/158 80/82/160 92/94/161 91/93/159
f 80/82/160 81/83/162 93/95/163 92/94/161
f 81/83/162 82/84/164 94/96/165 93/95/163
f 82/84/164 83/85/166 95/97/167 94/96/165
f 83/85/166 84/86/168 96/98/169 95/97/167
f 84/86/168 73/76/146 85/88/149 96/98/169
s 5
f 85/88/170 86/87/171 98/3/172 97/2/173
f 86/87/171 87/89/174 100/5/175 98/3/172
f 87/89/174 88/90/176 101/6/177 100/5/175
f 88/90/176 89/91/178 102/7/179 101/6/177
f 89/91/178 90/92/180 103/8/181 102/7/179
f 90/92/180 91/93/182 104/9/183 103/8/181
f 91/93/182 92/94/184 105/10/185 104/9/183
f 92/94/184 93/95/186 106/11/187 105/10/185
f 93/95/186 94/96/188 107/12/189 106/11/187
f 94/96/188 95/97/190 108/13/191 107/12/189
f 95/97/190 96/98/192 109/14/193 108/13/191
f 96/98/192 85/88/170 97/2/173 109/14/193
s off
f 25/129/194 26/130/195 110/131/196
f 27/132/197 25/129/198 110/131/199
f 28/133/200 27/132/201 110/131/202
f 29/134/203 28/133/204 110/131/205
f 30/135/206 29/134/207 110/131/208
f 31/136/209 30/135/210 110/131/211
f 32/137/212 31/136/213 110/131/214
f 33/138/215 32/137/216 110/131/217
f 34/139/218 33/138/219 110/131/220
f 35/140/221 34/139/222 110/131/223
f 36/141/224 35/140/225 110/131/226
f 26/130/227 36/141/228 110/131/229
