# This file uses meters as units for non-parametric coordinates.

g default
v 71.969394 138.666190 11.553106
v 76.047808 138.639821 13.588999
v 73.242373 188.141050 9.643823
v 77.320787 188.114680 11.679716
v 75.389670 187.919687 5.339372
v 79.468084 187.893318 7.375266
v 74.116690 138.444828 7.248655
v 78.195104 138.418458 9.284549
v 33.295644 177.332178 -8.593791
v 113.633008 176.812742 31.509616
v 34.568624 226.807038 -10.503074
v 114.905988 226.287601 29.600333
v 35.984693 226.661057 -13.341713
v 116.322057 226.141620 26.761694
v 34.711713 177.186197 -11.432430
v 115.049077 176.666761 28.670977
vt 0.961801 0.530270
vt 0.994368 0.530270
vt 0.994368 0.873292
vt 0.961801 0.873292
vt 0.895645 0.530270
vt 0.927668 0.530270
vt 0.927668 0.873292
vt 0.895645 0.873292
vt 0.854946 0.004431
vt 0.883380 0.004431
vt 0.883380 0.452653
vt 0.854946 0.452653
vt 0.006632 0.004431
vt 0.041111 0.004431
vt 0.041111 0.452653
vt 0.006632 0.452653
vt 0.927668 0.911057
vt 0.895645 0.911057
vt 0.895645 0.499677
vt 0.927668 0.499677
vt 0.854946 0.491289
vt 0.041111 0.491289
vt 0.041111 0.947756
vt 0.854946 0.947756
vt 0.854946 0.979240
vt 0.041111 0.979240
vt 0.862095 0.873292
vt 0.862095 0.530270
vn -0.445922 0.045970 0.893891
vn -0.445922 0.045970 0.893891
vn -0.445922 0.045970 0.893891
vn -0.445922 0.045970 0.893891
vn 0.025702 0.998926 -0.038550
vn 0.025702 0.998926 -0.038550
vn 0.025702 0.998926 -0.038550
vn 0.025702 0.998926 -0.038550
vn 0.445922 -0.045970 -0.893891
vn 0.445922 -0.045970 -0.893891
vn 0.445922 -0.045970 -0.893891
vn 0.445922 -0.045970 -0.893891
vn -0.025702 -0.998926 0.038550
vn -0.025702 -0.998926 0.038550
vn -0.025702 -0.998926 0.038550
vn -0.025702 -0.998926 0.038550
vn 0.894703 -0.005785 0.446624
vn 0.894703 -0.005785 0.446624
vn 0.894703 -0.005785 0.446624
vn 0.894703 -0.005785 0.446624
vn -0.894703 0.005785 -0.446624
vn -0.894703 0.005785 -0.446624
vn -0.894703 0.005785 -0.446624
vn -0.894703 0.005785 -0.446624
vn -0.445922 0.045970 0.893891
vn -0.445922 0.045970 0.893891
vn -0.445922 0.045970 0.893891
vn -0.445922 0.045970 0.893891
vn 0.025702 0.998926 -0.038550
vn 0.025702 0.998926 -0.038550
vn 0.025702 0.998926 -0.038550
vn 0.025702 0.998926 -0.038550
vn 0.445922 -0.045970 -0.893891
vn 0.445922 -0.045970 -0.893891
vn 0.445922 -0.045970 -0.893891
vn 0.445922 -0.045970 -0.893891
vn -0.025702 -0.998926 0.038550
vn -0.025702 -0.998926 0.038550
vn -0.025702 -0.998926 0.038550
vn -0.025702 -0.998926 0.038550
vn 0.894703 -0.005785 0.446624
vn 0.894703 -0.005785 0.446624
vn 0.894703 -0.005785 0.446624
vn 0.894703 -0.005785 0.446624
vn -0.894703 0.005785 -0.446624
vn -0.894703 0.005785 -0.446624
vn -0.894703 0.005785 -0.446624
vn -0.894703 0.005785 -0.446624
s off
g sign
f 1/6/1 2/1/2 4/4/3 3/7/4
f 3/7/5 4/17/6 6/18/7 5/8/8
f 5/8/9 6/27/10 8/28/11 7/5/12
f 7/5/13 8/19/14 2/20/15 1/6/16
f 2/1/17 8/2/18 6/3/19 4/4/20
f 7/5/21 1/6/22 3/7/23 5/8/24
f 9/14/25 10/9/26 12/12/27 11/15/28
f 11/15/29 12/12/30 14/21/31 13/22/32
f 13/22/33 14/21/34 16/24/35 15/23/36
f 15/23/37 16/24/38 10/25/39 9/26/40
f 10/9/41 16/10/42 14/11/43 12/12/44
f 15/13/45 9/14/46 11/15/47 13/16/48
