# This file uses meters as units for non-parametric coordinates.

g default
v 7.268083 125.117206 15.694171
v 12.657546 122.628242 15.251890
v 12.683640 124.394777 21.176259
v 8.957175 131.457777 23.845034
v 3.440684 131.863906 21.903652
v 2.613869 130.433868 16.016141
v 24.409361 122.973903 15.331332
v 30.238178 126.979792 15.431402
v 30.034797 128.538643 21.340720
v 24.673867 129.492600 23.512350
v 19.215847 123.578006 21.037988
v 18.559503 121.890276 15.126960
v 1.079094 149.309544 14.465610
v -0.555958 143.138089 14.134586
v 1.928724 140.978415 19.683715
v 7.503151 140.238309 22.295518
v 6.955861 145.881171 18.762498
v 6.834429 151.068846 14.723941
v 36.305390 144.904933 13.719955
v 31.176002 148.025235 14.208689
v 29.949906 143.006052 18.275770
v 28.178340 137.653133 21.857875
v 33.649636 137.012109 19.012260
v 36.355991 138.522709 13.353250
v 2.242992 146.001552 4.858559
v -0.545734 143.910726 10.053610
v 1.092938 150.053520 10.724924
v 6.844653 151.841483 10.642966
v 7.286393 150.775524 5.466413
v 8.506192 145.600068 2.330704
v 33.963904 142.035246 4.187104
v 27.694837 143.200766 1.924527
v 30.280438 147.900404 4.979685
v 31.186227 148.797872 10.127714
v 36.319234 145.648910 9.979269
v 36.366216 139.295345 9.272274
v 7.174898 125.855099 6.933120
v 2.524386 131.142439 7.603232
v 6.643181 131.482690 2.676931
v 11.858725 131.449034 0.584358
v 13.143936 125.914159 2.138781
v 12.568063 123.336813 6.838981
v 24.316175 123.711796 6.570281
v 18.470020 122.598847 6.714051
v 18.350871 125.263097 2.028563
v 20.892859 130.319428 0.393127
v 26.038770 129.057512 2.266373
v 30.148695 127.688363 7.018493
v 8.245841 125.709815 20.501122
v 23.808687 123.763874 20.171695
v 2.106415 145.419078 17.630757
v 34.484955 141.370544 16.945382
v 2.461118 150.122037 6.607099
v 34.839658 146.073503 5.921724
v 9.639814 126.975322 3.098524
v 22.045226 125.424180 2.835932
vt 0.153616 0.289423
vt 0.152198 0.392030
vt 0.077056 0.340476
vt 0.053990 0.237651
vt 0.212265 0.290919
vt 0.218408 0.370324
vt 0.149847 0.454254
vt 0.080545 0.411875
vt 0.005215 0.235297
vt 0.037623 0.300344
vt 0.154603 0.146367
vt 0.052544 0.165500
vt 0.212236 0.145885
vt 0.004938 0.164406
vt 0.055739 0.066263
vt 0.185902 0.059423
vt 0.230232 0.079364
vt 0.017585 0.088080
vt 0.088947 -0.000506
vt 0.208315 0.004497
vt 0.428023 0.392932
vt 0.429564 0.291635
vt 0.528440 0.236957
vt 0.508601 0.343027
vt 0.370218 0.292009
vt 0.362861 0.370299
vt 0.425679 0.149611
vt 0.527433 0.164012
vt 0.576447 0.231769
vt 0.547183 0.299345
vt 0.427873 0.454079
vt 0.498867 0.415931
vt 0.368216 0.147357
vt 0.522213 0.068127
vt 0.395929 0.060433
vt 0.575639 0.161168
vt 0.351204 0.079823
vt 0.560542 0.087285
vt 0.491254 0.001396
vt 0.373189 0.004948
vt 0.264327 0.287555
vt 0.263818 0.149353
vt 0.260669 0.381940
vt 0.266026 0.067898
vt 0.316854 0.149556
vt 0.317709 0.287694
vt 0.320350 0.380805
vt 0.211955 0.437999
vt 0.315715 0.067471
vt 0.243440 0.016844
vt 0.367365 0.438490
vt 0.339762 0.018257
vt 0.123462 0.676870
vt 0.177019 0.676913
vt 0.177291 0.746674
vt 0.122705 0.744879
vt 0.181209 0.592809
vt 0.133814 0.607906
vt 0.403948 0.675346
vt 0.404825 0.745077
vt 0.185909 0.832748
vt 0.138985 0.818337
vt 0.399009 0.592073
vt 0.132648 0.554758
vt 0.190132 0.513325
vt 0.458113 0.674781
vt 0.458744 0.742337
vt 0.397561 0.830723
vt 0.201250 0.893129
vt 0.136201 0.859055
vt 0.389367 0.513377
vt 0.446607 0.606430
vt 0.444153 0.815466
vt 0.383479 0.892444
vt 0.447215 0.553611
vt 0.447962 0.856174
vt 0.335354 0.998036
vt 0.250067 0.998338
vn -0.258506 -0.964295 0.057526
vn -0.613841 -0.787011 0.061748
vn -0.619351 -0.748273 -0.237679
vn -0.270234 -0.937630 -0.218684
vn -0.906621 -0.405689 0.115994
vn -0.882743 -0.336418 -0.328006
vn -0.059721 0.013103 0.998129
vn -0.128945 -0.613210 0.779325
vn 0.006412 -0.630135 0.776459
vn 0.102643 -0.007199 0.994692
vn 0.015390 -0.998543 0.051729
vn -0.673557 -0.200464 0.711432
vn -0.790114 0.068625 0.609106
vn -0.987792 -0.104684 0.115358
vn -0.033756 0.344680 0.938113
vn 0.782907 -0.616943 0.080231
vn 0.403286 -0.914190 0.040218
vn 0.405680 -0.876441 -0.259376
vn 0.758334 -0.541614 -0.362743
vn 0.021801 -0.974146 -0.224866
vn 0.632539 -0.363776 0.683785
vn 0.807370 -0.131121 0.575292
vn 0.156605 0.320877 0.934084
vn 0.935565 -0.345176 0.074645
vn -0.653410 0.610615 0.447442
vn -0.730471 0.678001 -0.082021
vn -0.959183 -0.090278 -0.267989
vn 0.045307 0.814449 0.578463
vn 0.053052 0.998490 -0.014273
vn 0.027157 0.571764 0.819969
vn 0.148587 0.556581 0.817398
vn 0.180679 0.797522 0.575598
vn 0.801652 0.428677 0.416642
vn 0.870797 0.477782 -0.115916
vn 0.193778 0.980894 -0.017252
vn 0.895434 -0.322175 -0.307247
vn -0.644778 0.053381 -0.762504
vn -0.574592 -0.126175 -0.808656
vn -0.098493 0.263275 -0.959680
vn -0.100796 0.044352 -0.993918
vn 0.018310 0.824491 -0.565579
vn 0.161626 0.806571 -0.568612
vn 0.120187 0.235932 -0.964309
vn 0.605735 -0.102980 -0.788974
vn 0.491656 -0.259496 -0.831226
vn 0.067109 0.023358 -0.997472
vn -0.185151 -0.557562 -0.809224
vn 0.008348 -0.581757 -0.813320
vn -0.502470 -0.694513 0.514952
vn 0.337088 -0.799489 0.497181
vn -0.519647 0.443438 0.730294
vn 0.642763 0.298093 0.705689
vn -0.602792 0.629961 -0.489685
vn 0.718351 0.464768 -0.517651
vn -0.485602 -0.558881 -0.672192
vn 0.304673 -0.657695 -0.688920
s 1
g chest
f 2/41/1 1/5/2 37/13/3 42/42/4
f 1/5/2 6/1/5 38/11/6 37/13/3
f 4/48/7 3/43/8 11/47/9 10/51/10
f 3/43/8 2/41/1 12/46/11 11/47/9
f 6/1/5 5/2/12 15/3/13 14/4/14
f 5/2/12 4/7/7 16/8/15 15/3/13
f 8/22/16 7/25/17 43/33/18 48/27/19
f 7/25/17 12/46/11 44/45/20 43/33/18
f 10/31/10 9/21/21 23/24/22 22/32/23
f 9/21/21 8/22/16 24/23/24 23/24/22
f 14/4/14 13/9/25 27/14/26 26/12/27
f 13/53/25 18/54/28 28/55/29 27/56/26
f 18/54/28 17/57/30 21/63/31 20/59/32
f 17/57/30 16/65/15 22/71/23 21/63/31
f 20/59/32 19/66/33 35/67/34 34/60/35
f 19/29/33 24/23/24 36/28/36 35/36/34
f 26/12/27 25/15/37 39/16/38 38/11/6
f 25/15/37 30/19/39 40/20/40 39/16/38
f 30/69/39 29/61/41 33/68/42 32/74/43
f 29/61/41 28/55/29 34/60/35 33/68/42
f 32/39/43 31/34/44 47/35/45 46/40/46
f 31/34/44 36/28/36 48/27/19 47/35/45
f 42/42/4 41/44/47 45/49/48 44/45/20
f 41/44/47 40/50/40 46/52/46 45/49/48
f 4/48/7 10/51/10 22/71/23 16/65/15
f 18/54/28 20/59/32 34/60/35 28/55/29
f 30/69/39 32/74/43 46/77/46 40/78/40
f 42/42/4 44/45/20 12/46/11 2/41/1
f 8/22/16 48/27/19 36/28/36 24/23/24
f 38/11/6 6/1/5 14/4/14 26/12/27
f 5/2/12 6/1/5 1/5/2 49/6/49
f 1/5/2 2/41/1 3/43/8 49/6/49
f 3/43/8 4/48/7 5/2/12 49/6/49
f 11/47/9 12/46/11 7/25/17 50/26/50
f 7/25/17 8/22/16 9/21/21 50/26/50
f 9/21/21 10/51/10 11/47/9 50/26/50
f 17/57/30 18/54/28 13/53/25 51/58/51
f 13/9/25 14/4/14 15/3/13 51/10/51
f 15/64/13 16/65/15 17/57/30 51/58/51
f 23/24/22 24/23/24 19/29/33 52/30/52
f 19/66/33 20/59/32 21/63/31 52/72/52
f 21/63/31 22/71/23 23/75/22 52/72/52
f 29/61/41 30/69/39 25/70/37 53/62/53
f 25/15/37 26/12/27 27/14/26 53/18/53
f 27/56/26 28/55/29 29/61/41 53/62/53
f 35/36/34 36/28/36 31/34/44 54/38/54
f 31/76/44 32/74/43 33/68/42 54/73/54
f 33/68/42 34/60/35 35/67/34 54/73/54
f 41/44/47 42/42/4 37/13/3 55/17/55
f 37/13/3 38/11/6 39/16/38 55/17/55
f 39/16/38 40/50/40 41/44/47 55/17/55
f 47/35/45 48/27/19 43/33/18 56/37/56
f 43/33/18 44/45/20 45/49/48 56/37/56
f 45/49/48 46/52/46 47/35/45 56/37/56
g default
v 1.324823 -1.859984 -1.758378
v -0.251494 -1.608762 -2.378071
v -1.813921 -1.467523 -1.691939
v -2.447210 -1.519002 -0.101907
v -1.780389 -1.733043 1.460604
v -0.204073 -1.984265 2.080297
v 1.358354 -2.125504 1.394164
v 1.991644 -2.074025 -0.195867
v 23.018235 169.234706 12.421209
v 21.441918 169.485928 11.801516
v 19.879491 169.627167 12.487648
v 19.246202 169.575688 14.077680
v 19.913023 169.361647 15.640191
v 21.489339 169.110425 16.259884
v 23.051766 168.969186 15.573751
v 23.685056 169.020665 13.983720
v -0.227783 -1.796514 -0.148887
v 21.465629 169.298177 14.030700
vt 0.975888 0.327824
vt 0.975975 0.191519
vt 0.975963 0.210991
vt 0.975950 0.230463
vt 0.975938 0.249935
vt 0.975925 0.269407
vt 0.975913 0.288879
vt 0.975900 0.308351
vt 0.975988 0.172046
vt 0.601703 0.172725
vt 0.601690 0.192199
vt 0.601678 0.211673
vt 0.601665 0.231148
vt 0.601653 0.250623
vt 0.601640 0.270097
vt 0.601628 0.289572
vt 0.601615 0.309045
vt 0.601603 0.328519
vt 0.997842 0.317816
vt 0.581060 0.299579
vt 0.581085 0.260630
vt 0.581110 0.221675
vt 0.581135 0.182718
vt 0.581097 0.241153
vt 0.581047 0.319058
vt 0.581072 0.280107
vt 0.581122 0.202200
vt 0.997917 0.200996
vt 0.997892 0.239934
vt 0.997867 0.278873
vt 0.997905 0.220463
vt 0.997855 0.298343
vt 0.997930 0.181523
vt 0.997880 0.259401
vn 0.693994 -0.028370 -0.719421
vn -0.010598 0.083922 -0.996416
vn -0.010598 0.083922 -0.996416
vn 0.693994 -0.028370 -0.719421
vn -0.708983 0.147055 -0.689724
vn -0.708983 0.147055 -0.689724
vn -0.992054 0.124044 0.020999
vn -0.992054 0.124044 0.020999
vn -0.693994 0.028370 0.719421
vn -0.693994 0.028370 0.719421
vn 0.010598 -0.083922 0.996416
vn 0.010598 -0.083922 0.996416
vn 0.708982 -0.147055 0.689724
vn 0.708982 -0.147055 0.689724
vn 0.992054 -0.124044 -0.020999
vn 0.992054 -0.124044 -0.020999
vn -0.125362 -0.988721 -0.081941
vn -0.125362 -0.988721 -0.081943
vn -0.125362 -0.988721 -0.081942
vn -0.125362 -0.988721 -0.081941
vn -0.125362 -0.988721 -0.081943
vn -0.125362 -0.988721 -0.081943
vn -0.125362 -0.988721 -0.081941
vn -0.125362 -0.988721 -0.081941
vn -0.125362 -0.988721 -0.081943
vn 0.125362 0.988721 0.081941
vn 0.125362 0.988721 0.081941
vn 0.125362 0.988721 0.081942
vn 0.125362 0.988721 0.081944
vn 0.125362 0.988721 0.081944
vn 0.125362 0.988721 0.081941
vn 0.125362 0.988721 0.081941
vn 0.125362 0.988721 0.081941
vn 0.125362 0.988721 0.081941
s 1
g standBar
f 57/87/57 58/80/58 66/89/59 65/88/60
f 58/80/58 59/81/61 67/90/62 66/89/59
f 59/81/61 60/82/63 68/91/64 67/90/62
f 60/82/63 61/83/65 69/92/66 68/91/64
f 61/83/65 62/84/67 70/93/68 69/92/66
f 62/84/67 63/85/69 71/94/70 70/93/68
f 63/85/69 64/86/71 72/95/72 71/94/70
f 64/86/71 57/79/57 65/96/60 72/95/72
s 2
f 58/80/73 57/87/74 73/111/75
f 59/81/76 58/80/73 73/106/75
f 60/82/77 59/81/76 73/109/75
f 61/83/78 60/82/77 73/107/75
f 62/84/79 61/83/78 73/112/75
f 63/85/80 62/84/79 73/108/75
f 64/86/81 63/85/80 73/110/75
f 57/79/74 64/86/81 73/97/75
s 3
f 65/88/82 66/89/83 74/101/84
f 66/89/83 67/90/85 74/105/84
f 67/90/85 68/91/86 74/100/84
f 68/91/86 69/92/87 74/102/84
f 69/92/87 70/93/88 74/99/84
f 70/93/88 71/94/89 74/104/84
f 71/94/89 72/95/90 74/98/84
f 72/95/90 65/96/82 74/103/84
g default
v 69.844200 140.080811 13.046586
v 68.641474 137.590241 13.170640
v 70.177059 137.566952 15.601316
v 73.697487 139.255293 15.902031
v 73.668776 141.818087 14.972284
v 72.293348 142.211613 12.514443
v 68.734785 132.123060 13.182815
v 70.505454 129.387167 12.733984
v 71.947557 129.471904 15.183638
v 72.680274 131.958898 16.026938
v 69.754283 134.534408 15.653230
v 68.259488 134.850287 13.217545
v 80.558766 142.806160 9.444665
v 77.764001 143.605481 10.069477
v 77.479621 142.463654 12.829901
v 77.442739 139.876026 14.101921
v 79.528309 140.094907 11.809663
v 81.343935 140.118624 9.348994
v 78.278857 126.452531 9.724623
v 79.768505 128.818171 9.542447
v 78.040093 129.420038 11.992406
v 76.104604 130.277674 14.266235
v 75.426587 127.737381 13.082001
v 75.374994 126.469295 10.362832
v 77.862807 142.285793 5.560834
v 77.596791 143.595848 8.145061
v 80.421485 142.795025 7.676226
v 81.176725 140.108991 7.424578
v 80.045976 139.910297 5.241473
v 77.327173 139.375725 4.490119
v 75.809773 127.559520 5.812933
v 76.085250 130.467494 4.642619
v 78.557761 129.235428 5.424216
v 79.601295 128.808539 7.618030
v 78.141576 126.441396 7.956184
v 75.207784 126.459662 8.438415
v 69.073669 140.119487 9.030802
v 71.553437 142.248752 8.658236
v 71.061387 140.331222 6.416683
v 70.751531 137.906028 5.492842
v 68.461069 137.343306 6.886844
v 67.901562 137.627379 9.314433
v 67.964255 132.161736 9.167031
v 67.519577 134.887426 9.361338
v 68.124066 134.926013 6.928226
v 70.166826 133.711976 5.564640
v 69.806070 131.326918 6.570828
v 69.765542 129.424306 8.877778
v 70.707924 139.622378 15.126126
v 69.700669 132.397406 15.249810
v 79.208612 142.352984 11.352726
v 77.113015 127.321410 11.610052
v 79.926138 142.158342 5.826144
v 77.830542 127.126768 6.083469
v 69.078135 138.966143 7.177199
v 68.275235 133.206994 7.275790
vt 0.699622 0.527797
vt 0.698696 0.594793
vt 0.649633 0.561131
vt 0.634572 0.493992
vt 0.737916 0.528773
vt 0.741927 0.580620
vt 0.697161 0.635422
vt 0.651910 0.607750
vt 0.602724 0.492455
vt 0.623885 0.534927
vt 0.700266 0.434389
vt 0.633627 0.446882
vt 0.737897 0.434075
vt 0.602543 0.446168
vt 0.635714 0.382086
vt 0.720702 0.377619
vt 0.749647 0.390640
vt 0.610801 0.396331
vt 0.657396 0.338490
vt 0.735337 0.341756
vt 0.878793 0.595382
vt 0.879799 0.529241
vt 0.944360 0.493539
vt 0.931406 0.562797
vt 0.841050 0.529485
vt 0.836246 0.580604
vt 0.877263 0.436507
vt 0.943702 0.445911
vt 0.975705 0.490152
vt 0.956598 0.534274
vt 0.878695 0.635307
vt 0.925050 0.610399
vt 0.839743 0.435035
vt 0.940294 0.383303
vt 0.857838 0.378279
vt 0.975178 0.444053
vt 0.828635 0.390940
vt 0.965320 0.395812
vt 0.920079 0.339731
vt 0.842990 0.342051
vt 0.771909 0.526577
vt 0.771577 0.436339
vt 0.769521 0.588204
vt 0.773019 0.383153
vt 0.806206 0.436471
vt 0.806765 0.526667
vt 0.808489 0.587463
vt 0.737714 0.624808
vt 0.805463 0.382874
vt 0.758271 0.349818
vt 0.839187 0.625128
vt 0.821164 0.350741
vt 0.679932 0.780777
vt 0.714902 0.780805
vt 0.715080 0.826355
vt 0.679438 0.825182
vt 0.717638 0.725890
vt 0.686692 0.735747
vt 0.863074 0.779781
vt 0.863646 0.825312
vt 0.720707 0.882556
vt 0.690069 0.873147
vt 0.859849 0.725409
vt 0.685931 0.701045
vt 0.723464 0.673991
vt 0.898441 0.779413
vt 0.898852 0.823523
vt 0.858903 0.881234
vt 0.730723 0.921981
vt 0.688250 0.899733
vt 0.853553 0.674025
vt 0.890928 0.734783
vt 0.889325 0.871272
vt 0.849709 0.921534
vt 0.891325 0.700296
vt 0.891812 0.897852
vt 0.818286 0.990479
vt 0.762599 0.990676
vn -0.909378 0.271573 0.315087
vn -0.732924 0.624469 0.269927
vn -0.776503 0.629453 -0.028842
vn -0.958222 0.282938 0.041910
vn -0.347342 0.912045 0.218007
vn -0.400994 0.887229 -0.228098
vn 0.283216 0.059538 0.957206
vn -0.377967 0.137258 0.915588
vn -0.396803 0.002143 0.917901
vn 0.260621 -0.102536 0.959981
vn -0.947494 -0.001833 0.319768
vn 0.008140 0.676216 0.736658
vn 0.241049 0.789110 0.564979
vn -0.056682 0.989123 0.135734
vn 0.585855 0.029074 0.809894
vn -0.582463 -0.774460 0.246878
vn -0.874471 -0.390838 0.287308
vn -0.919150 -0.393744 -0.011326
vn -0.629372 -0.750912 -0.200055
vn -0.998863 -0.008575 0.046901
vn -0.173621 -0.627542 0.758977
vn 0.018737 -0.805516 0.592278
vn 0.559364 -0.160947 0.813147
vn -0.324343 -0.930793 0.168601
vn 0.717322 0.645061 0.263335
vn 0.640073 0.721199 -0.264913
vn -0.146817 0.960320 -0.237129
vn 0.939836 -0.056359 0.336945
vn 0.956674 -0.066602 -0.283441
vn 0.771731 -0.034917 0.634990
vn 0.754832 -0.156130 0.637065
vn 0.920997 -0.191489 0.339258
vn 0.514831 -0.807397 0.288199
vn 0.417235 -0.877203 -0.237550
vn 0.937090 -0.207076 -0.281036
vn -0.404912 -0.890978 -0.205437
vn -0.146310 0.643993 -0.750910
vn -0.332558 0.576252 -0.746552
vn -0.004690 0.094910 -0.995475
vn -0.224669 0.100184 -0.969271
vn 0.640590 -0.029501 -0.767316
vn 0.620646 -0.172561 -0.764867
vn -0.035123 -0.123378 -0.991738
vn -0.320335 -0.604281 -0.729541
vn -0.480940 -0.488088 -0.728331
vn -0.248035 -0.067420 -0.966402
vn -0.753089 0.192704 -0.629064
vn -0.780017 -0.000450 -0.625758
vn -0.522820 0.511853 0.681664
vn -0.639656 -0.326204 0.696011
vn 0.631099 0.513579 0.581335
vn 0.469334 -0.646750 0.601198
vn 0.481954 0.594184 -0.643946
vn 0.298099 -0.724595 -0.621369
vn -0.713389 0.493145 -0.497880
vn -0.823366 -0.295716 -0.484376
s 1
g hand
f 76/153/91 75/117/92 111/125/93 116/154/94
f 75/117/92 80/113/95 112/123/96 111/125/93
f 78/160/97 77/155/98 85/159/99 84/163/100
f 77/155/98 76/153/91 86/158/101 85/159/99
f 80/113/95 79/114/102 89/115/103 88/116/104
f 79/114/102 78/119/97 90/120/105 89/115/103
f 82/134/106 81/137/107 117/145/108 122/139/109
f 81/137/107 86/158/101 118/157/110 117/145/108
f 84/143/100 83/133/111 97/136/112 96/144/113
f 83/133/111 82/134/106 98/135/114 97/136/112
f 88/116/104 87/121/115 101/126/116 100/124/117
f 87/165/115 92/166/118 102/167/119 101/168/116
f 92/166/118 91/169/120 95/175/121 94/171/122
f 91/169/120 90/177/105 96/183/113 95/175/121
f 94/171/122 93/178/123 109/179/124 108/172/125
f 93/141/123 98/135/114 110/140/126 109/148/124
f 100/124/117 99/127/127 113/128/128 112/123/96
f 99/127/127 104/131/129 114/132/130 113/128/128
f 104/181/129 103/173/131 107/180/132 106/186/133
f 103/173/131 102/167/119 108/172/125 107/180/132
f 106/151/133 105/146/134 121/147/135 120/152/136
f 105/146/134 110/140/126 122/139/109 121/147/135
f 116/154/94 115/156/137 119/161/138 118/157/110
f 115/156/137 114/162/130 120/164/136 119/161/138
f 78/160/97 84/163/100 96/183/113 90/177/105
f 92/166/118 94/171/122 108/172/125 102/167/119
f 104/181/129 106/186/133 120/189/136 114/190/130
f 116/154/94 118/157/110 86/158/101 76/153/91
f 82/134/106 122/139/109 110/140/126 98/135/114
f 112/123/96 80/113/95 88/116/104 100/124/117
f 79/114/102 80/113/95 75/117/92 123/118/139
f 75/117/92 76/153/91 77/155/98 123/118/139
f 77/155/98 78/160/97 79/114/102 123/118/139
f 85/159/99 86/158/101 81/137/107 124/138/140
f 81/137/107 82/134/106 83/133/111 124/138/140
f 83/133/111 84/163/100 85/159/99 124/138/140
f 91/169/120 92/166/118 87/165/115 125/170/141
f 87/121/115 88/116/104 89/115/103 125/122/141
f 89/176/103 90/177/105 91/169/120 125/170/141
f 97/136/112 98/135/114 93/141/123 126/142/142
f 93/178/123 94/171/122 95/175/121 126/184/142
f 95/175/121 96/183/113 97/187/112 126/184/142
f 103/173/131 104/181/129 99/182/127 127/174/143
f 99/127/127 100/124/117 101/126/116 127/130/143
f 101/168/116 102/167/119 103/173/131 127/174/143
f 109/148/124 110/140/126 105/146/134 128/150/144
f 105/188/134 106/186/133 107/180/132 128/185/144
f 107/180/132 108/172/125 109/179/124 128/185/144
f 115/156/137 116/154/94 111/125/93 129/129/145
f 111/125/93 112/123/96 113/128/128 129/129/145
f 113/128/128 114/162/130 115/156/137 129/129/145
f 121/147/135 122/139/109 117/145/108 130/149/146
f 117/145/108 118/157/110 119/161/138 130/149/146
f 119/161/138 120/164/136 121/147/135 130/149/146
g default
v -36.031416 147.204069 11.943065
v -35.855666 148.778809 11.294057
v -35.638579 150.343447 11.954879
v -35.507322 150.981439 13.538433
v -35.538784 150.319059 15.117093
v -35.714534 148.744319 15.766102
v -35.931621 147.179682 15.105279
v -36.062878 146.541689 13.521725
v 69.144291 134.056061 8.522465
v 69.320042 135.630800 7.873456
v 69.537129 137.195438 8.534279
v 69.668386 137.833430 10.117832
v 69.636924 137.171050 11.696492
v 69.461173 135.596311 12.345501
v 69.244086 134.031673 11.684678
v 69.112829 133.393680 10.101125
v -35.785100 148.761564 13.530079
v 69.390608 135.613555 10.109478
vt 0.975888 0.163738
vt 0.975975 0.027433
vt 0.975963 0.046905
vt 0.975950 0.066377
vt 0.975938 0.085848
vt 0.975925 0.105320
vt 0.975913 0.124792
vt 0.975900 0.144265
vt 0.975988 0.007960
vt 0.601703 0.008639
vt 0.601690 0.028112
vt 0.601678 0.047587
vt 0.601665 0.067061
vt 0.601653 0.086536
vt 0.601640 0.106011
vt 0.601628 0.125485
vt 0.601615 0.144959
vt 0.601603 0.164432
vt 0.997842 0.153729
vt 0.581060 0.135492
vt 0.581085 0.096543
vt 0.581110 0.057588
vt 0.581135 0.018631
vt 0.581097 0.077066
vt 0.581047 0.154971
vt 0.581072 0.116020
vt 0.581122 0.038113
vt 0.997917 0.036909
vt 0.997892 0.075847
vt 0.997867 0.114787
vt 0.997905 0.056377
vt 0.997855 0.134257
vt 0.997930 0.017436
vt 0.997880 0.095314
vn -0.110100 -0.696180 -0.709374
vn -0.031542 0.007708 -0.999473
vn -0.031542 0.007708 -0.999473
vn -0.110100 -0.696180 -0.709374
vn 0.065493 0.707081 -0.704093
vn 0.065493 0.707081 -0.704093
vn 0.124163 0.992255 0.003734
vn 0.124163 0.992255 0.003734
vn 0.110100 0.696180 0.709374
vn 0.110100 0.696180 0.709374
vn 0.031542 -0.007708 0.999473
vn 0.031542 -0.007708 0.999473
vn -0.065493 -0.707081 0.704093
vn -0.065493 -0.707081 0.704093
vn -0.124163 -0.992255 -0.003734
vn -0.124163 -0.992255 -0.003734
vn -0.991760 0.123980 0.032255
vn -0.991760 0.123980 0.032254
vn -0.991760 0.123980 0.032254
vn -0.991760 0.123980 0.032255
vn -0.991760 0.123980 0.032254
vn -0.991760 0.123980 0.032254
vn -0.991760 0.123980 0.032255
vn -0.991760 0.123980 0.032255
vn -0.991760 0.123980 0.032254
vn 0.991760 -0.123980 -0.032255
vn 0.991760 -0.123980 -0.032255
vn 0.991760 -0.123980 -0.032254
vn 0.991760 -0.123980 -0.032253
vn 0.991760 -0.123980 -0.032253
vn 0.991760 -0.123980 -0.032255
vn 0.991760 -0.123980 -0.032255
vn 0.991760 -0.123980 -0.032255
vn 0.991760 -0.123980 -0.032255
s 1
g armBar
f 131/199/147 132/192/148 140/201/149 139/200/150
f 132/192/148 133/193/151 141/202/152 140/201/149
f 133/193/151 134/194/153 142/203/154 141/202/152
f 134/194/153 135/195/155 143/204/156 142/203/154
f 135/195/155 136/196/157 144/205/158 143/204/156
f 136/196/157 137/197/159 145/206/160 144/205/158
f 137/197/159 138/198/161 146/207/162 145/206/160
f 138/198/161 131/191/147 139/208/150 146/207/162
s 2
f 132/192/163 131/199/164 147/223/165
f 133/193/166 132/192/163 147/218/165
f 134/194/167 133/193/166 147/221/165
f 135/195/168 134/194/167 147/219/165
f 136/196/169 135/195/168 147/224/165
f 137/197/170 136/196/169 147/220/165
f 138/198/171 137/197/170 147/222/165
f 131/191/164 138/198/171 147/209/165
s 3
f 139/200/172 140/201/173 148/213/174
f 140/201/173 141/202/175 148/217/174
f 141/202/175 142/203/176 148/212/174
f 142/203/176 143/204/177 148/214/174
f 143/204/177 144/205/178 148/211/174
f 144/205/178 145/206/179 148/216/174
f 145/206/179 146/207/180 148/210/174
f 146/207/180 139/208/172 148/215/174
