# This file uses centimeters as units for non-parametric coordinates.

mtllib Road_singlelane.mtl
g default
v -14.066801 -0.500000 2.654523
v -0.002998 -0.500000 2.654523
v -14.066801 0.346661 2.654523
v -0.002998 0.346661 2.654523
v -14.066801 0.346661 -2.650412
v -0.002998 0.346661 -2.650412
v -14.066801 -0.500000 -2.650412
v -0.002998 -0.500000 -2.650412
v -14.066801 -0.500000 -1.346115
v -0.002998 -0.500000 -1.346115
v -0.002998 -0.500000 1.352223
v -14.066801 -0.500000 1.352223
v -0.002998 0.177847 -1.346115
v -14.066801 0.177847 -1.346115
v -14.066801 0.177847 1.352223
v -0.002998 0.177847 1.352223
v -14.066801 0.177847 -2.650412
v -0.002998 0.177847 -2.650412
v -14.066801 0.177847 2.654523
v -0.002998 0.177847 2.654523
v -0.002998 0.250025 -1.348113
v -0.002998 0.346661 -1.444749
v -14.066801 0.250025 -1.348113
v -14.066801 0.346661 -1.444749
v -14.066801 0.250025 1.352223
v -14.066801 0.346661 1.448860
v -0.002998 0.250025 1.352223
v -0.002998 0.346661 1.448860
v -0.002998 0.177847 1.453376
v -0.002998 -0.500000 1.453376
v -14.066801 -0.500000 1.453376
v -14.066801 0.177847 1.453376
v -14.066801 0.177847 -1.454452
v -14.066801 -0.500000 -1.454452
v -0.002998 -0.500000 -1.454452
v -0.002998 0.177847 -1.454452
vt 0.375000 0.000000
vt 0.625000 0.000000
vt 0.375000 0.250000
vt 0.625000 0.500000
vt 0.375000 0.750000
vt 0.625000 0.750000
vt 0.375000 1.000000
vt 0.625000 1.000000
vt 0.875000 0.000000
vt 0.125000 0.000000
vt 0.296875 0.421875
vt 0.703125 0.421875
vt 0.656250 0.468750
vt 0.343750 0.468750
vt 0.250000 0.375000
vt 0.750000 0.375000
vt 0.375000 0.168182
vt 0.296875 0.288176
vt 0.625000 0.168182
vt 0.656250 0.240341
vt 0.625000 0.250000
vt 0.653122 0.397490
vt 0.703125 0.288176
vt 0.375000 0.442138
vt 0.375000 0.500000
vt 0.365626 0.290854
vt 0.343750 0.240341
vt 0.625000 0.307862
vt 0.625000 0.442138
vt 0.346878 0.397490
vt 0.375000 0.307862
vt 0.634374 0.290854
vt 0.653823 0.234736
vt 0.653823 0.510013
vt 0.653823 0.432341
vt 0.346177 0.432341
vt 0.346177 0.510013
vt 0.346177 0.234736
vt 0.268491 0.293230
vt 0.268491 0.373078
vt 0.288905 0.434319
vt 0.711095 0.434319
vt 0.731509 0.373078
vt 0.731509 0.293230
vn 0.000000 0.000000 1.000000
vn 0.000000 0.000000 1.000000
vn 0.000000 0.000000 1.000000
vn 0.000000 0.000000 1.000000
vn 0.000000 1.000000 0.000000
vn 0.000000 1.000000 0.000000
vn 0.000000 1.000000 0.000000
vn 0.000000 1.000000 0.000000
vn 0.000000 0.000000 -1.000000
vn 0.000000 0.000000 -1.000000
vn 0.000000 0.000000 -1.000000
vn 0.000000 0.000000 -1.000000
vn 0.000000 -1.000000 0.000000
vn 0.000000 -1.000000 0.000000
vn 0.000000 -1.000000 0.000000
vn 0.000000 -1.000000 0.000000
vn 0.000000 -1.000000 0.000000
vn 0.000000 -1.000000 0.000000
vn 1.000000 0.000000 0.000000
vn 1.000000 0.000000 0.000000
vn 1.000000 0.000000 0.000000
vn 1.000000 0.000000 0.000000
vn 0.000000 0.997258 0.074001
vn 0.000000 0.997258 0.074001
vn 0.000000 1.000000 0.000000
vn 0.000000 1.000000 0.000000
vn -1.000000 -0.000000 0.000000
vn -1.000000 0.000001 0.000000
vn -1.000000 0.000001 -0.000002
vn -1.000000 0.000000 -0.000002
vn 0.000000 1.000000 0.000000
vn 0.000000 1.000000 0.000000
vn 0.000000 0.997258 -0.074001
vn 0.000000 0.997258 -0.074001
vn 0.000000 -1.000000 0.000000
vn 0.000000 -1.000000 0.000000
vn 0.000000 0.504480 0.863424
vn 0.000000 0.504480 0.863424
vn 0.000000 0.027677 0.999617
vn 0.000000 0.027677 0.999617
vn 0.000000 0.496801 -0.867865
vn 0.000000 0.496801 -0.867865
vn 0.000000 0.000000 -1.000000
vn 0.000000 0.000000 -1.000000
vn 0.000000 0.000000 -1.000000
vn 0.000000 0.000000 -1.000000
vn -1.000000 0.000000 0.000000
vn -1.000000 0.000000 0.000000
vn -1.000000 0.000000 0.000000
vn -1.000000 0.000000 0.000000
vn 0.000000 0.000000 1.000000
vn 0.000000 0.000000 1.000000
vn 1.000000 -0.000000 0.000000
vn 1.000000 0.000000 0.000000
vn 1.000000 0.000000 0.000000
vn 1.000000 0.000000 0.000000
vn 1.000000 0.000000 0.000000
vn 1.000000 0.000000 0.000000
vn 1.000000 0.000000 0.000000
vn 1.000000 0.000000 0.000000
vn -1.000000 0.000000 0.000000
vn -1.000000 0.000000 0.000000
vn -1.000000 0.000000 0.000000
vn -1.000000 0.000000 0.000000
vn 1.000000 0.000000 0.000000
vn 1.000000 -0.000000 0.000000
vn 0.000000 -1.000000 0.000000
vn 0.000000 -1.000000 0.000000
vn -1.000000 0.000000 0.000000
vn -1.000000 0.000000 0.000000
vn -1.000000 0.000001 0.000000
vn -1.000000 -0.000000 0.000000
vn 0.000000 -1.000000 0.000000
vn 0.000000 -1.000000 0.000000
vn 1.000000 0.000000 0.000000
vn 1.000000 0.000000 0.000000
vn -1.000000 -0.000004 0.000000
vn -1.000000 -0.000004 0.000000
vn -1.000000 -0.000002 -0.000003
vn -1.000000 -0.000002 -0.000003
vn -1.000000 0.000000 0.000000
vn -1.000000 0.000000 0.000000
vn -1.000000 0.000000 0.000000
vn -1.000000 0.000000 0.000000
vn 1.000000 -0.000000 0.000000
vn 1.000000 -0.000000 0.000000
vn 1.000000 0.000000 0.000000
vn 1.000000 0.000000 0.000000
vn 1.000000 0.000000 0.000000
vn 1.000000 0.000000 0.000000
vn 1.000000 0.000002 0.000000
vn 1.000000 0.000002 0.000000
s 1
g pCube3
usemtl initialShadingGroup
f 19/17/1 20/19/2 4/21/3 3/3/4
s off
f 13/23/5 14/18/6 15/27/7 16/20/8
s 2
f 17/15/9 18/16/10 8/6/11 7/5/12
s 3
f 12/14/13 9/11/14 10/12/15 11/13/16
f 34/41/17 35/42/18 10/12/15 9/11/14
s 4
f 35/43/19 36/44/20 13/23/21 10/12/22
s 5
f 24/24/23 22/29/24 6/4/25 5/25/26
s 6
f 33/39/27 34/40/28 9/11/29 14/18/30
s 7
f 3/3/31 4/21/32 28/28/33 26/31/34
s 3
f 12/14/13 11/13/16 30/34/35 31/37/36
s 5
f 21/22/37 23/30/38 14/18/39 13/23/40
s 7
f 25/26/41 27/32/42 16/20/43 15/27/44
s 2
f 5/25/45 6/4/46 18/16/10 17/15/9
s 8
f 31/36/47 32/38/48 15/27/49 12/14/50
s 1
f 1/1/51 2/2/52 20/19/2 19/17/1
s 9
f 29/33/53 30/35/54 11/13/55 16/20/56
s off
f 11/13/57 10/12/58 13/23/59 16/20/60
f 14/18/61 9/11/62 12/14/63 15/27/64
s 5
f 21/22/37 22/29/24 24/24/23 23/30/38
s 7
f 25/26/41 26/31/34 28/28/33 27/32/42
s 9
f 2/2/65 30/35/54 29/33/53 20/19/66
s 3
f 31/37/36 30/34/35 2/8/67 1/7/68
s 8
f 19/17/69 32/38/48 31/36/47 1/1/70
s 6
f 7/10/71 34/40/28 33/39/27 17/15/72
s 3
f 7/5/73 8/6/74 35/42/18 34/41/17
s 4
f 18/16/75 36/44/20 35/43/19 8/9/76
s 6
f 24/24/77 5/25/78 17/15/72 33/39/27
f 33/39/27 14/18/30 23/30/79 24/24/80
s 8
f 3/3/81 26/31/82 32/38/48 19/17/69
f 15/27/49 32/38/48 26/31/83 25/26/84
s 9
f 28/28/85 4/21/86 20/19/66 29/33/53
f 27/32/87 28/28/88 29/33/53 16/20/56
s 4
f 36/44/20 18/16/75 6/4/89 22/29/90
f 22/29/91 21/22/92 13/23/21 36/44/20
