# This file uses centimeters as units for non-parametric coordinates.

mtllib Road_Skyway_straight.mtl
g default
v -14.058393 -0.500000 3.998513
v -14.058393 -0.500000 -3.998773
v -14.058393 -0.500000 -3.523162
v -14.058393 -0.500000 3.524503
v -14.058393 0.177692 -3.523162
v -14.058393 0.177692 3.524503
v -14.058393 0.177692 -3.998773
v -14.058393 0.177692 3.998513
v -14.058393 0.964906 -3.523162
v -14.058393 1.061543 -3.649454
v -14.058393 0.964906 3.524503
v -14.058393 1.061543 3.650795
v -14.058393 -0.500000 3.656696
v -14.058393 -0.500000 -3.662136
v -14.058393 0.957238 3.998513
v -14.058393 1.061543 3.894209
v -14.058393 1.061543 -3.894460
v -14.058393 0.957238 -3.998773
v -14.058393 -0.500000 -3.866308
v -14.058393 -0.500000 3.894112
v -0.002250 -0.500000 -3.662136
v -0.002250 0.177847 -3.662136
v -0.002250 0.177847 -3.523162
v -0.002250 -0.500000 -3.523162
v -0.002250 0.177847 3.656696
v -0.002250 -0.500000 3.656696
v -0.002250 -0.500000 3.524503
v -0.002250 0.177847 3.524503
v -0.002250 0.177847 3.894112
v -0.002250 -0.500000 3.894112
v -0.002250 -0.500000 -3.866308
v -0.002250 0.177847 -3.866308
v -0.002250 1.061543 3.894209
v -0.002250 0.957238 3.998513
v -0.002250 0.177847 3.998513
v -0.002250 0.964906 3.524503
v -0.002250 1.061543 3.650795
v -0.002250 1.061543 -3.894460
v -0.002250 1.061543 -3.649454
v -0.002250 0.964906 -3.523162
v -0.002250 0.177847 -3.998773
v -0.002250 -0.500000 -3.998773
v -0.002250 -0.500000 3.998513
v -0.002250 0.957238 -3.998773
v -14.058393 0.177537 -3.866308
v -14.058393 0.177537 3.656696
v -14.058393 0.177537 3.894112
v -14.058393 0.177537 -3.662136
vt 0.625000 0.000000
vt 0.875000 0.000000
vt 0.718750 0.406250
vt 0.656250 0.468750
vt 0.656250 0.240341
vt 0.653122 0.397490
vt 0.718750 0.304121
vt 0.634374 0.290854
vt 0.653823 0.432341
vt 0.731509 0.373078
vt 0.731509 0.293230
vt 0.625000 0.307862
vt 0.812500 0.584091
vt 0.653823 0.234736
vt 0.375000 0.687500
vt 0.625000 0.442138
vt 0.625000 0.240343
vt 0.625000 0.482722
vt 0.625000 0.267357
vt 0.639754 0.485246
vt 0.818539 0.146799
vt 0.742724 0.342825
vt 0.633803 0.188510
vt 0.633803 0.132051
vt 0.718750 0.406250
vt 0.731509 0.373078
vt 0.653823 0.432341
vt 0.656250 0.468750
vt 0.718750 0.304121
vt 0.656250 0.240341
vt 0.633803 0.132051
vt 0.818539 0.146799
vt 0.625000 0.267357
vt 0.625000 0.240343
vt 0.625000 0.168182
vt 0.634374 0.290854
vt 0.625000 0.307862
vt 0.625000 0.482722
vt 0.625000 0.442138
vt 0.653122 0.397490
vt 0.875000 0.000000
vt 0.750000 0.375000
vt 0.625000 0.000000
vt 0.639754 0.485246
vt 0.000000 0.000000
vt 1.000000 0.000000
vt 0.500000 1.000000
vt 0.000000 0.000000
vt 1.000000 0.000000
vt 0.500000 1.000000
vt 0.000000 1.000000
vt 0.000000 0.000000
vt 1.000000 0.000000
vt 0.500000 1.000000
vt 0.000000 0.000000
vt 1.000000 0.000000
vt 1.000000 1.000000
vt 0.500000 1.000000
vt 0.000000 0.000000
vt 1.000000 0.000000
vt 0.000000 0.000000
vt 1.000000 0.000000
vn 1.000000 0.000000 0.000000
vn 1.000000 -0.000000 0.000000
vn 1.000000 0.000000 0.000000
vn 1.000000 0.000000 0.000000
vn 1.000000 0.000000 0.000000
vn 1.000000 0.000000 0.000000
vn 1.000000 0.000000 0.000000
vn 1.000000 0.000000 0.000000
vn 1.000000 0.000000 0.000000
vn 1.000000 0.000000 0.000000
vn 1.000000 0.000000 0.000000
vn 1.000000 0.000000 0.000000
vn 1.000000 0.000000 0.000000
vn 1.000000 0.000000 0.000000
vn 1.000000 0.000000 0.000000
vn 1.000000 -0.000000 0.000000
vn 1.000000 0.000000 0.000000
vn 1.000000 0.000000 0.000000
vn 1.000000 0.000000 0.000000
vn 1.000000 0.000000 0.000000
vn 1.000000 0.000000 0.000000
vn 1.000000 -0.000000 0.000000
vn 1.000000 -0.000000 0.000000
vn 1.000000 0.000000 0.000000
vn 1.000000 0.000000 0.000000
vn 1.000000 -0.000001 0.000000
vn 1.000000 0.000000 0.000000
vn 1.000000 0.000000 0.000000
vn 1.000000 0.000000 0.000000
vn 1.000000 -0.000002 0.000000
vn 0.000000 -1.000000 0.000000
vn 0.000000 -1.000000 0.000000
vn 0.000000 -1.000000 0.000000
vn 0.000000 -1.000000 0.000000
vn 0.000000 -1.000000 0.000000
vn 0.000000 -1.000000 0.000000
vn 0.000000 -1.000000 0.000000
vn 0.000000 -1.000000 0.000000
vn 0.000000 -1.000000 0.000000
vn 0.000000 -1.000000 0.000000
vn 0.000000 -1.000000 0.000000
vn 0.000000 -1.000000 0.000000
vn -0.000011 1.000000 -0.000000
vn -0.000011 1.000000 -0.000000
vn -0.000011 1.000000 -0.000000
vn -0.000011 1.000000 -0.000000
vn 0.000000 -1.000000 0.000000
vn 0.000000 -1.000000 0.000000
vn 0.000000 -1.000000 0.000000
vn 0.000000 -1.000000 0.000000
vn 0.000000 -1.000000 0.000000
vn 0.000000 -1.000000 0.000000
vn 0.000000 -1.000000 0.000000
vn 0.000000 -1.000000 0.000000
vn 0.000000 0.957834 0.287321
vn 0.000000 0.117208 0.993107
vn 0.000000 0.117208 0.993107
vn 0.000000 0.957834 0.287321
vn 0.000000 0.000000 1.000000
vn 0.000000 0.000000 1.000000
vn 0.000000 0.794175 -0.607689
vn 0.000000 0.794175 -0.607689
vn 0.000000 0.794175 -0.607689
vn 0.000000 0.794175 -0.607689
vn -0.000000 0.000000 -1.000000
vn -0.000000 0.000000 -1.000000
vn -0.000000 0.000000 -1.000000
vn -0.000000 0.000000 -1.000000
vn 0.000000 0.958196 -0.286112
vn 0.000000 0.967760 0.251875
vn 0.000000 0.967760 0.251875
vn 0.000000 0.958196 -0.286112
vn 0.000000 0.141464 0.989943
vn 0.000000 0.141464 0.989943
vn 0.000000 0.000000 1.000000
vn 0.000000 0.000000 1.000000
vn 0.000000 -1.000000 0.000000
vn 0.000000 -1.000000 0.000000
vn 0.000000 -1.000000 0.000000
vn 0.000000 -1.000000 0.000000
vn 0.000000 0.000000 -1.000000
vn 0.000000 0.000000 -1.000000
vn 0.000000 0.000000 -1.000000
vn 0.000000 0.000000 -1.000000
vn 0.000000 -1.000000 0.000000
vn 0.000000 -1.000000 0.000000
vn 0.000000 -1.000000 0.000000
vn 0.000000 -1.000000 0.000000
vn -0.000000 0.000000 1.000000
vn -0.000000 0.000000 1.000000
vn -0.000000 0.000000 1.000000
vn -0.000000 0.000000 1.000000
vn 0.000000 1.000000 0.000000
vn 0.000000 1.000000 0.000000
vn 0.000000 0.000000 -1.000000
vn 0.000000 0.117217 -0.993106
vn 0.000000 0.117217 -0.993106
vn 0.000000 0.000000 -1.000000
vn -1.000000 0.000000 0.000000
vn -1.000000 0.000000 0.000000
vn -1.000000 0.000000 0.000000
vn -1.000000 0.000000 0.000000
vn -1.000000 0.000000 0.000000
vn -1.000000 0.000000 0.000000
vn -1.000000 -0.000000 0.000000
vn -1.000000 -0.000000 0.000000
vn -1.000000 0.000000 0.000000
vn -1.000000 0.000000 0.000000
vn -1.000000 0.000000 0.000000
vn -1.000000 0.000000 0.000000
vn -1.000000 0.000000 0.000000
vn -1.000000 0.000000 0.000000
vn -1.000000 0.000000 0.000000
vn -1.000000 0.000000 0.000000
vn -1.000000 0.000000 0.000000
vn -1.000000 0.000000 0.000000
vn -1.000000 0.000000 0.000000
vn -1.000000 0.000000 0.000000
vn -1.000000 0.000000 0.000000
vn -1.000000 0.000000 0.000000
vn -1.000000 0.000000 0.000000
vn -1.000000 0.000000 0.000000
vn -1.000000 0.000000 0.000000
vn -1.000000 0.000000 0.000000
vn -1.000000 0.000000 0.000000
vn -1.000000 0.000000 0.000000
vn -1.000000 -0.000000 0.000000
vn -1.000000 -0.000000 0.000000
vn -1.000000 0.000000 0.000000
vn -1.000000 0.000000 0.000000
vn -1.000000 0.000000 0.000000
vn -1.000000 0.000000 0.000000
vn -1.000000 0.000000 0.000000
vn -1.000000 0.000000 0.000000
vn -1.000000 0.000000 0.000000
vn -1.000000 0.000000 0.000000
vn -1.000000 0.000000 0.000000
vn -1.000000 0.000000 0.000000
s 1
g pCube20
usemtl initialShadingGroup
f 21/26/1 22/11/2 23/7/3 24/25/4
s 2
f 25/14/5 26/27/6 27/28/7 28/5/8
s off
f 28/30/9 27/28/10 24/25/11 23/29/12
s 2
f 29/23/13 30/31/14 26/27/6 25/14/5
s 1
f 31/32/15 32/22/16 22/11/2 21/26/1
s 2
f 29/23/13 33/33/17 34/34/18 35/35/19
f 36/36/20 37/37/21 25/14/5 28/30/8
s 1
f 22/11/2 32/22/16 38/38/22 39/39/23
f 39/39/24 40/40/25 23/29/3 22/11/2
f 41/42/26 32/22/16 31/32/15 42/41/27
s 2
f 43/43/28 30/31/14 29/23/13 35/35/19
f 37/37/29 33/33/17 29/23/13 25/14/5
s 1
f 38/38/22 32/22/16 41/42/26 44/44/30
s off
f 3/3/31 14/10/32 21/26/33 24/25/34
f 13/9/35 4/4/36 27/28/37 26/27/38
f 4/4/39 3/3/40 24/25/41 27/28/42
f 5/7/43 6/5/44 28/30/45 23/29/46
f 20/24/47 13/9/48 26/27/49 30/31/50
f 14/10/51 19/21/52 31/32/53 21/26/54
s 3
f 16/19/55 15/17/56 34/34/57 33/33/58
f 15/17/56 8/13/59 35/35/60 34/34/57
s off
f 11/8/61 12/12/62 37/37/63 36/36/64
f 6/5/65 11/8/66 36/36/67 28/30/68
s 4
f 17/18/69 10/16/70 39/39/71 38/38/72
f 10/16/70 9/6/73 40/40/74 39/39/71
f 9/6/73 5/7/75 23/29/76 40/40/74
s off
f 19/21/77 2/2/78 42/41/79 31/32/80
f 2/2/81 7/15/82 41/42/83 42/41/84
f 1/1/85 20/24/86 30/31/87 43/43/88
f 8/13/89 1/1/90 43/43/91 35/35/92
s 3
f 12/12/93 16/19/55 33/33/58 37/37/94
s 4
f 7/15/95 18/20/96 44/44/97 41/42/98
f 18/20/96 17/18/69 38/38/72 44/44/97
s 5
f 2/45/99 19/46/100 45/47/101 7/15/102
s 6
f 4/48/103 13/49/104 46/50/105 6/51/106
s 7
f 13/52/107 20/53/108 47/54/109 46/50/110
s 8
f 14/55/111 3/56/112 5/57/113 48/58/114
s 9
f 19/59/115 14/60/116 48/58/117 45/47/118
s 10
f 20/61/119 1/62/120 8/13/121 47/54/122
s 7
f 16/19/123 12/12/124 46/50/110 47/54/109
s 10
f 15/17/125 16/19/126 47/54/122 8/13/121
s 6
f 12/12/127 11/8/128 6/51/106 46/50/105
s off
f 3/3/129 4/4/130 6/5/131 5/7/132
s 9
f 10/16/133 17/18/134 45/47/118 48/58/117
s 8
f 9/6/135 10/16/136 48/58/114 5/57/113
s 5
f 17/18/137 18/20/138 7/15/102 45/47/101
